<svg id="visual" viewBox="0 0 1920 400" width="1920" height="400" xmlns="http://www.w3.org/2000/svg" xmlns:xlink="http://www.w3.org/1999/xlink" version="1.1"><rect width="1920" height="400" fill="#231f20"></rect><g><g transform="translate(1814 357)"><path d="M8.7 0.4C8.7 4.7 4.3 9.5 0 9.5C-4.4 9.5 -8.8 4.7 -8.8 0.4C-8.8 -4 -4.4 -8 0 -8C4.3 -8 8.7 -4 8.7 0.4Z" fill="#f7b5cd"></path></g><g transform="translate(1557 175)"><path d="M7 0C7 3.2 3.5 6.4 0.4 6.4C-2.8 6.4 -5.5 3.2 -5.5 0C-5.5 -3.1 -2.8 -6.3 0.4 -6.3C3.5 -6.3 7 -3.1 7 0Z" fill="#f7b5cd"></path></g><g transform="translate(1269 318)"><path d="M1.1 0C1.1 0.6 0.5 1.1 0 1.1C-0.6 1.1 -1.2 0.6 -1.2 0C-1.2 -0.6 -0.6 -1.2 0 -1.2C0.5 -1.2 1.1 -0.6 1.1 0Z" fill="#f7b5cd"></path></g><g transform="translate(640 83)"><path d="M5.9 -0.1C5.9 3 2.9 6.1 0 6.1C-2.9 6.1 -5.8 3 -5.8 -0.1C-5.8 -3.2 -2.9 -6.3 0 -6.3C2.9 -6.3 5.9 -3.2 5.9 -0.1Z" fill="#f7b5cd"></path></g><g transform="translate(422 252)"><path d="M3 0C3 1.5 1.5 3 0.1 3C-1.3 3 -2.6 1.5 -2.6 0C-2.6 -1.4 -1.3 -2.8 0.1 -2.8C1.5 -2.8 3 -1.4 3 0Z" fill="#f7b5cd"></path></g><g transform="translate(798 227)"><path d="M5 0.3C5 3 2.5 5.9 -0.1 5.9C-2.8 5.9 -5.6 3 -5.6 0.3C-5.6 -2.4 -2.8 -4.7 -0.1 -4.7C2.5 -4.7 5 -2.4 5 0.3Z" fill="#f7b5cd"></path></g><g transform="translate(737 188)"><path d="M7.4 -0.3C7.4 3.3 3.7 6.7 0.3 6.7C-3.1 6.7 -6.2 3.3 -6.2 -0.3C-6.2 -3.9 -3.1 -7.9 0.3 -7.9C3.7 -7.9 7.4 -3.9 7.4 -0.3Z" fill="#f7b5cd"></path></g><g transform="translate(1900 218)"><path d="M6.1 -0.2C6.1 3 3.1 5.9 0.1 5.9C-2.9 5.9 -5.9 3 -5.9 -0.2C-5.9 -3.3 -2.9 -6.6 0.1 -6.6C3.1 -6.6 6.1 -3.3 6.1 -0.2Z" fill="#f7b5cd"></path></g><g transform="translate(588 21)"><path d="M4.8 -0.3C4.8 2.1 2.4 4.1 0 4.1C-2.3 4.1 -4.6 2.1 -4.6 -0.3C-4.6 -2.6 -2.3 -5.3 0 -5.3C2.4 -5.3 4.8 -2.6 4.8 -0.3Z" fill="#f7b5cd"></path></g><g transform="translate(178 278)"><path d="M3.1 0C3.1 1.6 1.6 3.1 -0.2 3.1C-1.9 3.1 -3.8 1.6 -3.8 0C-3.8 -1.6 -1.9 -3.2 -0.2 -3.2C1.6 -3.2 3.1 -1.6 3.1 0Z" fill="#f7b5cd"></path></g><g transform="translate(146 70)"><path d="M1.9 0C1.9 0.9 0.9 1.9 0 1.9C-1 1.9 -1.9 0.9 -1.9 0C-1.9 -0.9 -1 -1.7 0 -1.7C0.9 -1.7 1.9 -0.9 1.9 0Z" fill="#f7b5cd"></path></g><g transform="translate(775 365)"><path d="M1.3 0C1.3 0.6 0.7 1.1 0 1.1C-0.6 1.1 -1.2 0.6 -1.2 0C-1.2 -0.6 -0.6 -1.2 0 -1.2C0.7 -1.2 1.3 -0.6 1.3 0Z" fill="#f7b5cd"></path></g><g transform="translate(137 166)"><path d="M1.7 0.1C1.7 1 0.9 2 0 2C-0.8 2 -1.6 1 -1.6 0.1C-1.6 -0.9 -0.8 -1.7 0 -1.7C0.9 -1.7 1.7 -0.9 1.7 0.1Z" fill="#f7b5cd"></path></g><g transform="translate(653 323)"><path d="M2.5 0C2.5 1.4 1.3 2.7 0 2.7C-1.3 2.7 -2.7 1.4 -2.7 0C-2.7 -1.3 -1.3 -2.6 0 -2.6C1.3 -2.6 2.5 -1.3 2.5 0Z" fill="#f7b5cd"></path></g><g transform="translate(1256 205)"><path d="M4.6 -0.3C4.6 2.1 2.3 4.2 0 4.2C-2.3 4.2 -4.6 2.1 -4.6 -0.3C-4.6 -2.6 -2.3 -5.2 0 -5.2C2.3 -5.2 4.6 -2.6 4.6 -0.3Z" fill="#f7b5cd"></path></g><g transform="translate(898 61)"><path d="M2.2 0C2.2 1.2 1.1 2.3 -0.1 2.3C-1.2 2.3 -2.4 1.2 -2.4 0C-2.4 -1.1 -1.2 -2.2 -0.1 -2.2C1.1 -2.2 2.2 -1.1 2.2 0Z" fill="#f7b5cd"></path></g><g transform="translate(951 275)"><path d="M2.4 -0.1C2.4 1.2 1.2 2.4 0.1 2.4C-1.1 2.4 -2.2 1.2 -2.2 -0.1C-2.2 -1.3 -1.1 -2.7 0.1 -2.7C1.2 -2.7 2.4 -1.3 2.4 -0.1Z" fill="#f7b5cd"></path></g><g transform="translate(1540 374)"><path d="M3.8 -0.2C3.8 1.9 1.9 3.8 0 3.8C-1.9 3.8 -3.7 1.9 -3.7 -0.2C-3.7 -2.2 -1.9 -4.4 0 -4.4C1.9 -4.4 3.8 -2.2 3.8 -0.2Z" fill="#f7b5cd"></path></g><g transform="translate(1858 372)"><path d="M6 0C6 2.5 3 5 0 5C-3 5 -5.9 2.5 -5.9 0C-5.9 -2.4 -3 -4.9 0 -4.9C3 -4.9 6 -2.4 6 0Z" fill="#f7b5cd"></path></g><g transform="translate(845 294)"><path d="M3.8 0C3.8 1.9 1.9 3.7 -0.1 3.7C-2.2 3.7 -4.4 1.9 -4.4 0C-4.4 -1.9 -2.2 -3.8 -0.1 -3.8C1.9 -3.8 3.8 -1.9 3.8 0Z" fill="#f7b5cd"></path></g><g transform="translate(1327 335)"><path d="M9.1 -0.1C9.1 4.4 4.6 8.9 0.1 8.9C-4.3 8.9 -8.6 4.4 -8.6 -0.1C-8.6 -4.6 -4.3 -9.2 0.1 -9.2C4.6 -9.2 9.1 -4.6 9.1 -0.1Z" fill="#f7b5cd"></path></g><g transform="translate(1864 175)"><path d="M5.1 0.1C5.1 3 2.6 6 0 6C-2.5 6 -5 3 -5 0.1C-5 -2.9 -2.5 -5.7 0 -5.7C2.6 -5.7 5.1 -2.9 5.1 0.1Z" fill="#f7b5cd"></path></g><g transform="translate(793 57)"><path d="M1.3 0C1.3 0.5 0.6 1.1 0 1.1C-0.6 1.1 -1.2 0.5 -1.2 0C-1.2 -0.5 -0.6 -1 0 -1C0.6 -1 1.3 -0.5 1.3 0Z" fill="#f7b5cd"></path></g><g transform="translate(1654 152)"><path d="M2.6 -0.1C2.6 1.1 1.3 2.1 0.1 2.1C-1.1 2.1 -2.2 1.1 -2.2 -0.1C-2.2 -1.3 -1.1 -2.5 0.1 -2.5C1.3 -2.5 2.6 -1.3 2.6 -0.1Z" fill="#f7b5cd"></path></g><g transform="translate(143 257)"><path d="M2.1 0C2.1 1.1 1 2.2 -0.1 2.2C-1.2 2.2 -2.5 1.1 -2.5 0C-2.5 -1.2 -1.2 -2.4 -0.1 -2.4C1 -2.4 2.1 -1.2 2.1 0Z" fill="#f7b5cd"></path></g><g transform="translate(1488 358)"><path d="M0.6 0C0.6 0.3 0.3 0.6 0 0.6C-0.3 0.6 -0.6 0.3 -0.6 0C-0.6 -0.3 -0.3 -0.6 0 -0.6C0.3 -0.6 0.6 -0.3 0.6 0Z" fill="#f7b5cd"></path></g><g transform="translate(266 313)"><path d="M4.7 0.1C4.7 2.6 2.4 5.2 -0.1 5.2C-2.5 5.2 -5 2.6 -5 0.1C-5 -2.3 -2.5 -4.7 -0.1 -4.7C2.4 -4.7 4.7 -2.3 4.7 0.1Z" fill="#f7b5cd"></path></g><g transform="translate(1773 221)"><path d="M6.7 0C6.7 3 3.4 6.1 0.2 6.1C-2.9 6.1 -5.9 3 -5.9 0C-5.9 -3.1 -2.9 -6.2 0.2 -6.2C3.4 -6.2 6.7 -3.1 6.7 0Z" fill="#f7b5cd"></path></g><g transform="translate(59 304)"><path d="M5.1 -0.2C5.1 2.8 2.6 5.5 -0.2 5.5C-3 5.5 -6 2.8 -6 -0.2C-6 -3.1 -3 -6.2 -0.2 -6.2C2.6 -6.2 5.1 -3.1 5.1 -0.2Z" fill="#f7b5cd"></path></g><g transform="translate(742 306)"><path d="M3.5 0.2C3.5 2 1.7 4 0 4C-1.7 4 -3.3 2 -3.3 0.2C-3.3 -1.6 -1.7 -3.2 0 -3.2C1.7 -3.2 3.5 -1.6 3.5 0.2Z" fill="#f7b5cd"></path></g><g transform="translate(521 168)"><path d="M7.3 0.2C7.3 4.1 3.6 8.2 0 8.2C-3.6 8.2 -7.2 4.1 -7.2 0.2C-7.2 -3.6 -3.6 -7.2 0 -7.2C3.6 -7.2 7.3 -3.6 7.3 0.2Z" fill="#f7b5cd"></path></g><g transform="translate(1348 244)"><path d="M8.5 -0.3C8.5 3.7 4.2 7.4 0.1 7.4C-4.1 7.4 -8.1 3.7 -8.1 -0.3C-8.1 -4.3 -4.1 -8.5 0.1 -8.5C4.2 -8.5 8.5 -4.3 8.5 -0.3Z" fill="#f7b5cd"></path></g><g transform="translate(323 309)"><path d="M3.1 0.1C3.1 1.8 1.6 3.6 0 3.6C-1.6 3.6 -3.1 1.8 -3.1 0.1C-3.1 -1.6 -1.6 -3.1 0 -3.1C1.6 -3.1 3.1 -1.6 3.1 0.1Z" fill="#f7b5cd"></path></g><g transform="translate(510 248)"><path d="M5.5 -0.2C5.5 2.6 2.7 5.2 0 5.2C-2.8 5.2 -5.6 2.6 -5.6 -0.2C-5.6 -2.9 -2.8 -5.9 0 -5.9C2.7 -5.9 5.5 -2.9 5.5 -0.2Z" fill="#f7b5cd"></path></g><g transform="translate(628 233)"><path d="M1.6 -0.1C1.6 0.8 0.8 1.6 -0.1 1.6C-1 1.6 -2 0.8 -2 -0.1C-2 -0.9 -1 -1.8 -0.1 -1.8C0.8 -1.8 1.6 -0.9 1.6 -0.1Z" fill="#f7b5cd"></path></g><g transform="translate(1789 19)"><path d="M2.9 -0.1C2.9 1.4 1.5 2.8 -0.1 2.8C-1.6 2.8 -3.3 1.4 -3.3 -0.1C-3.3 -1.6 -1.6 -3.2 -0.1 -3.2C1.5 -3.2 2.9 -1.6 2.9 -0.1Z" fill="#f7b5cd"></path></g><g transform="translate(1436 365)"><path d="M3.2 0.1C3.2 1.6 1.6 3.2 0.1 3.2C-1.4 3.2 -2.7 1.6 -2.7 0.1C-2.7 -1.4 -1.4 -2.8 0.1 -2.8C1.6 -2.8 3.2 -1.4 3.2 0.1Z" fill="#f7b5cd"></path></g></g></svg>