<svg id="visual" viewBox="0 0 1920 400" width="1920" height="400" xmlns="http://www.w3.org/2000/svg" xmlns:xlink="http://www.w3.org/1999/xlink" version="1.1"><rect width="1920" height="400" fill="#0d1117"></rect><g><g transform="translate(1859 305)"><path d="M13.1 -13.8C16.1 -10 17.1 -5 17.1 0C17.2 5 16.1 10.1 13.1 13.6C10.1 17.2 5 19.4 0.2 19.2C-4.6 18.9 -9.2 16.4 -12.9 12.8C-16.7 9.2 -19.5 4.6 -19.6 -0.1C-19.7 -4.7 -17 -9.5 -13.2 -13.3C-9.5 -17 -4.7 -19.8 0.1 -19.9C5 -20 10 -17.5 13.1 -13.8Z" fill="#f17ea6"></path></g><g transform="translate(1207 240)"><path d="M12.2 -12.1C15.3 -9.2 16.8 -4.6 16.6 -0.2C16.5 4.3 14.6 8.5 11.6 12C8.5 15.4 4.3 18.1 -0.4 18.5C-5 18.8 -10 16.9 -13.3 13.4C-16.7 10 -18.5 5 -18.2 0.3C-17.9 -4.4 -15.6 -8.9 -12.3 -11.9C-8.9 -14.8 -4.4 -16.3 0.1 -16.4C4.6 -16.4 9.2 -15.1 12.2 -12.1Z" fill="#f17ea6"></path></g><g transform="translate(204 128)"><path d="M6 -6.1C7.6 -4.5 8.4 -2.3 8.2 -0.2C8.1 2 7 3.9 5.4 5.3C3.9 6.7 2 7.5 0 7.5C-1.9 7.5 -3.8 6.6 -5.1 5.2C-6.5 3.8 -7.3 1.9 -7.3 0C-7.3 -1.9 -6.4 -3.7 -5.1 -5.3C-3.7 -6.9 -1.9 -8.3 0.2 -8.5C2.3 -8.7 4.5 -7.7 6 -6.1Z" fill="#f17ea6"></path></g><g transform="translate(1606 124)"><path d="M10.1 -9.6C12.9 -7.2 15.1 -3.6 15.1 0C15.1 3.6 12.9 7.2 10 10.3C7.2 13.4 3.6 16.1 -0.3 16.4C-4.2 16.7 -8.4 14.7 -10.9 11.6C-13.4 8.4 -14.1 4.2 -14.1 0C-14 -4.2 -13.3 -8.4 -10.9 -10.8C-8.4 -13.2 -4.2 -13.8 -0.3 -13.5C3.6 -13.2 7.2 -12 10.1 -9.6Z" fill="#f17ea6"></path></g><g transform="translate(1094 209)"><path d="M3.1 -3.2C3.8 -2.3 4.3 -1.1 4.3 0C4.3 1.1 3.8 2.2 3 3C2.2 3.8 1.1 4.2 0 4.2C-1.2 4.2 -2.3 3.8 -3.2 3.1C-4.1 2.3 -4.8 1.2 -4.9 -0.1C-5 -1.3 -4.5 -2.7 -3.6 -3.6C-2.7 -4.5 -1.3 -5 -0.1 -4.9C1.1 -4.8 2.3 -4.1 3.1 -3.2Z" fill="#f17ea6"></path></g><g transform="translate(148 157)"><path d="M8.6 -8.7C10.7 -6.6 11.5 -3.3 11.2 -0.3C10.9 2.7 9.5 5.4 7.4 7.3C5.4 9.2 2.7 10.3 -0.3 10.6C-3.2 10.9 -6.5 10.3 -8.9 8.4C-11.2 6.5 -12.8 3.2 -12.7 0C-12.7 -3.1 -11.1 -6.3 -8.7 -8.4C-6.3 -10.6 -3.1 -11.7 0.1 -11.7C3.3 -11.8 6.6 -10.9 8.6 -8.7Z" fill="#f17ea6"></path></g><g transform="translate(1344 308)"><path d="M11.9 -12.4C14.5 -9.2 15.1 -4.6 14.6 -0.5C14.1 3.6 12.5 7.2 9.8 9.7C7.2 12.3 3.6 13.7 -0.1 13.8C-3.8 14 -7.7 12.7 -10.6 10.2C-13.6 7.7 -15.6 3.8 -15.7 0C-15.7 -3.9 -13.6 -7.7 -10.7 -10.9C-7.7 -14.1 -3.9 -16.5 0.4 -16.9C4.6 -17.2 9.2 -15.5 11.9 -12.4Z" fill="#f17ea6"></path></g><g transform="translate(1159 249)"><path d="M9.2 -9.5C11.5 -6.9 12.7 -3.4 12.6 -0.1C12.5 3.2 11 6.4 8.7 8.9C6.4 11.3 3.2 13.1 0 13.1C-3.2 13.1 -6.5 11.4 -9.4 8.9C-12.3 6.5 -14.9 3.2 -15.3 -0.4C-15.7 -4 -13.9 -8 -10.9 -10.6C-8 -13.3 -4 -14.6 -0.3 -14.3C3.4 -14 6.9 -12.1 9.2 -9.5Z" fill="#f17ea6"></path></g><g transform="translate(619 291)"><path d="M9.3 -9.8C11.6 -7.1 12.5 -3.5 12.3 -0.2C12.2 3.2 10.9 6.5 8.7 8.6C6.5 10.8 3.2 11.8 -0.1 11.9C-3.4 12 -6.8 11.1 -8.8 9C-10.8 6.8 -11.5 3.4 -11.4 0.1C-11.3 -3.2 -10.4 -6.4 -8.4 -9.1C-6.4 -11.7 -3.2 -13.8 0.2 -14C3.5 -14.2 7.1 -12.4 9.3 -9.8Z" fill="#f17ea6"></path></g><g transform="translate(1485 41)"><path d="M3.5 -3.7C4.4 -2.6 4.9 -1.3 5 0.1C5.1 1.4 4.7 2.9 3.8 3.8C2.9 4.7 1.4 5.2 -0.1 5.3C-1.6 5.4 -3.3 5.1 -4.3 4.2C-5.3 3.3 -5.6 1.6 -5.5 0.1C-5.4 -1.4 -4.8 -2.8 -3.8 -4C-2.8 -5.1 -1.4 -6 -0.1 -5.9C1.3 -5.8 2.6 -4.8 3.5 -3.7Z" fill="#f17ea6"></path></g><g transform="translate(44 128)"><path d="M6.8 -6.7C8.5 -5 9.5 -2.5 9.4 0C9.4 2.5 8.4 4.9 6.6 6.9C4.9 8.9 2.5 10.4 -0.3 10.7C-3 11 -6.1 10 -8 8.1C-10 6.1 -10.9 3 -10.9 0C-10.9 -3 -10 -6.1 -8 -7.7C-6.1 -9.4 -3 -9.6 -0.3 -9.4C2.5 -9.1 5 -8.3 6.8 -6.7Z" fill="#f17ea6"></path></g><g transform="translate(903 151)"><path d="M1.5 -1.5C1.8 -1.1 2.1 -0.5 2.1 0.1C2.2 0.7 2.1 1.3 1.7 1.8C1.3 2.3 0.7 2.6 0.1 2.6C-0.6 2.5 -1.1 2.1 -1.5 1.6C-1.9 1.1 -2.2 0.6 -2.2 0C-2.3 -0.7 -2.1 -1.3 -1.7 -1.8C-1.3 -2.2 -0.7 -2.4 -0.1 -2.4C0.5 -2.3 1.1 -2 1.5 -1.5Z" fill="#f17ea6"></path></g><g transform="translate(76 361)"><path d="M6.4 -6.6C8.2 -4.7 9.4 -2.3 9.4 0C9.4 2.4 8.3 4.8 6.5 6.3C4.8 7.9 2.4 8.7 0 8.7C-2.4 8.7 -4.7 7.9 -6.5 6.3C-8.2 4.7 -9.4 2.4 -9.6 -0.2C-9.8 -2.8 -9.1 -5.6 -7.3 -7.6C-5.6 -9.5 -2.8 -10.7 -0.2 -10.5C2.3 -10.2 4.7 -8.6 6.4 -6.6Z" fill="#f17ea6"></path></g><g transform="translate(195 302)"><path d="M10.5 -10.9C13.1 -7.8 14.5 -3.9 14.5 -0.1C14.4 3.8 12.9 7.6 10.3 10.9C7.6 14.3 3.8 17.1 -0.2 17.3C-4.1 17.4 -8.3 14.9 -10.9 11.6C-13.5 8.3 -14.6 4.1 -14.7 -0.2C-14.9 -4.5 -14.2 -9 -11.6 -12.1C-9 -15.2 -4.5 -16.9 -0.3 -16.6C3.9 -16.3 7.8 -14 10.5 -10.9Z" fill="#f17ea6"></path></g><g transform="translate(351 113)"><path d="M2.1 -2.1C2.7 -1.4 3.2 -0.7 3.2 0C3.3 0.8 2.8 1.6 2.2 2.1C1.6 2.7 0.8 3 0 3C-0.9 3.1 -1.8 2.9 -2.4 2.3C-3 1.8 -3.4 0.9 -3.3 0C-3.3 -0.8 -2.9 -1.6 -2.2 -2.2C-1.6 -2.8 -0.8 -3.3 0 -3.2C0.7 -3.2 1.4 -2.7 2.1 -2.1Z" fill="#f17ea6"></path></g><g transform="translate(700 212)"><path d="M3.8 -3.9C4.7 -2.8 5.1 -1.4 5.1 -0.1C5 1.3 4.4 2.6 3.5 3.6C2.6 4.7 1.3 5.5 -0.1 5.6C-1.4 5.7 -2.9 5 -3.9 3.9C-5 2.9 -5.7 1.4 -5.6 0.1C-5.5 -1.2 -4.6 -2.5 -3.5 -3.6C-2.5 -4.7 -1.2 -5.7 0.1 -5.7C1.4 -5.8 2.8 -5 3.8 -3.9Z" fill="#f17ea6"></path></g><g transform="translate(1844 41)"><path d="M5.9 -5.9C7.2 -4.5 7.6 -2.3 7.6 -0.1C7.5 2.1 6.8 4.1 5.5 5.5C4.1 6.9 2.1 7.6 -0.1 7.7C-2.3 7.8 -4.5 7.3 -6.1 5.9C-7.7 4.5 -8.7 2.3 -8.5 0.1C-8.4 -2 -7.1 -3.9 -5.5 -5.2C-3.9 -6.6 -2 -7.3 0.2 -7.4C2.3 -7.6 4.5 -7.2 5.9 -5.9Z" fill="#f17ea6"></path></g><g transform="translate(1298 363)"><path d="M4.3 -4.1C5.4 -3.2 6 -1.6 5.9 -0.1C5.7 1.3 4.9 2.7 3.8 3.7C2.7 4.7 1.3 5.4 -0.1 5.5C-1.5 5.5 -3.1 5.1 -4 4.1C-5 3.1 -5.4 1.5 -5.4 0C-5.4 -1.5 -4.9 -3 -3.9 -3.9C-3 -4.8 -1.5 -5.1 0.1 -5.1C1.6 -5.2 3.2 -5 4.3 -4.1Z" fill="#f17ea6"></path></g><g transform="translate(916 54)"><path d="M1.2 -1.2C1.5 -0.9 1.7 -0.5 1.7 0C1.7 0.4 1.5 0.9 1.2 1.2C0.9 1.5 0.4 1.7 0 1.7C-0.4 1.7 -0.8 1.4 -1.1 1.1C-1.4 0.8 -1.6 0.4 -1.5 0C-1.5 -0.4 -1.3 -0.8 -1 -1C-0.8 -1.3 -0.4 -1.5 0 -1.5C0.5 -1.6 0.9 -1.5 1.2 -1.2Z" fill="#f17ea6"></path></g><g transform="translate(1018 200)"><path d="M11.2 -11.2C13.8 -8.6 14.8 -4.3 14.8 -0.1C14.7 4.1 13.6 8.3 10.9 11.3C8.3 14.2 4.1 16.1 0 16C-4 16 -8.1 14.1 -10.9 11.1C-13.7 8.1 -15.3 4 -15.3 0C-15.4 -4.1 -13.9 -8.3 -11.1 -10.9C-8.3 -13.5 -4.1 -14.6 0.1 -14.7C4.3 -14.8 8.6 -13.8 11.2 -11.2Z" fill="#f17ea6"></path></g><g transform="translate(1340 112)"><path d="M1.2 -1.2C1.5 -0.9 1.6 -0.4 1.6 0C1.5 0.4 1.3 0.7 1 1C0.7 1.2 0.4 1.4 0 1.4C-0.4 1.4 -0.7 1.2 -1 1C-1.2 0.7 -1.4 0.4 -1.4 0C-1.4 -0.4 -1.3 -0.7 -1 -1C-0.7 -1.3 -0.4 -1.5 0 -1.5C0.4 -1.6 0.9 -1.4 1.2 -1.2Z" fill="#f17ea6"></path></g><g transform="translate(601 198)"><path d="M5.2 -5.4C6.7 -3.8 7.6 -1.9 7.8 0.2C8 2.3 7.4 4.6 6 5.9C4.6 7.3 2.3 7.7 0.2 7.5C-1.9 7.3 -3.8 6.5 -5.4 5.1C-7 3.8 -8.4 1.9 -8.6 -0.2C-8.8 -2.3 -7.8 -4.5 -6.2 -6.1C-4.5 -7.7 -2.3 -8.6 -0.2 -8.5C1.9 -8.3 3.8 -7 5.2 -5.4Z" fill="#f17ea6"></path></g><g transform="translate(1450 359)"><path d="M4.7 -4.7C5.8 -3.5 6.4 -1.8 6.3 0C6.3 1.7 5.6 3.3 4.5 4.4C3.3 5.4 1.7 5.8 -0.1 5.9C-1.8 6 -3.7 5.7 -4.7 4.7C-5.8 3.7 -6.1 1.8 -6.1 0.1C-6 -1.7 -5.6 -3.5 -4.5 -4.7C-3.5 -5.9 -1.7 -6.5 0 -6.6C1.8 -6.6 3.5 -5.9 4.7 -4.7Z" fill="#f17ea6"></path></g><g transform="translate(1428 282)"><path d="M7.2 -7.1C9 -5.5 9.7 -2.7 9.7 -0.1C9.6 2.6 8.7 5.2 6.9 7.1C5.2 9 2.6 10.2 0.1 10.2C-2.5 10.1 -4.9 8.7 -6.9 6.8C-8.9 4.9 -10.4 2.5 -10.6 -0.2C-10.8 -2.8 -9.6 -5.6 -7.6 -7.3C-5.6 -8.9 -2.8 -9.4 0 -9.3C2.7 -9.3 5.5 -8.7 7.2 -7.1Z" fill="#f17ea6"></path></g><g transform="translate(535 256)"><path d="M2.8 -2.7C3.6 -1.9 4.2 -1 4.3 0.1C4.3 1.1 3.8 2.2 3 2.8C2.2 3.5 1.1 3.9 0 3.9C-1.2 3.9 -2.3 3.7 -3 3C-3.8 2.3 -4.1 1.2 -4 0.1C-3.9 -0.9 -3.3 -1.8 -2.6 -2.6C-1.8 -3.4 -0.9 -4 0 -4.1C1 -4.1 1.9 -3.5 2.8 -2.7Z" fill="#f17ea6"></path></g><g transform="translate(956 174)"><path d="M1.1 -1.2C1.4 -0.9 1.5 -0.4 1.5 0C1.5 0.4 1.4 0.8 1.1 1.1C0.8 1.4 0.4 1.5 0 1.6C-0.5 1.6 -0.9 1.5 -1.2 1.2C-1.4 0.9 -1.5 0.5 -1.5 0C-1.5 -0.4 -1.4 -0.8 -1.1 -1.1C-0.8 -1.5 -0.4 -1.7 0 -1.7C0.4 -1.7 0.9 -1.5 1.1 -1.2Z" fill="#f17ea6"></path></g><g transform="translate(370 268)"><path d="M5.7 -5.5C7.3 -4.1 8.4 -2 8.4 0C8.4 2.1 7.3 4.1 5.7 5.8C4.1 7.5 2.1 8.8 -0.2 9C-2.4 9.1 -4.9 8.2 -6.6 6.6C-8.3 4.9 -9.3 2.4 -9.1 0.2C-8.9 -2.1 -7.5 -4.1 -5.8 -5.6C-4.1 -7 -2.1 -7.8 0 -7.8C2 -7.8 4.1 -7 5.7 -5.5Z" fill="#f17ea6"></path></g><g transform="translate(1330 29)"><path d="M8.4 -8.2C11 -5.7 13.4 -2.9 13.6 0.2C13.9 3.3 11.9 6.6 9.3 8.7C6.6 10.8 3.3 11.6 -0.1 11.8C-3.6 11.9 -7.2 11.3 -9.7 9.3C-12.2 7.2 -13.5 3.6 -13.2 0.4C-12.8 -2.8 -10.7 -5.7 -8.2 -8.1C-5.7 -10.5 -2.8 -12.5 0 -12.5C2.9 -12.5 5.7 -10.6 8.4 -8.2Z" fill="#f17ea6"></path></g><g transform="translate(737 114)"><path d="M1.2 -1.2C1.5 -0.9 1.7 -0.5 1.7 0C1.6 0.4 1.5 0.9 1.2 1.2C0.9 1.4 0.4 1.5 0 1.5C-0.4 1.5 -0.8 1.4 -1.2 1.1C-1.5 0.8 -1.7 0.4 -1.7 0C-1.7 -0.4 -1.5 -0.9 -1.2 -1.1C-0.9 -1.4 -0.4 -1.5 0 -1.5C0.5 -1.5 0.9 -1.5 1.2 -1.2Z" fill="#f17ea6"></path></g><g transform="translate(1685 39)"><path d="M5.4 -5.3C6.7 -4.1 7.2 -2 7.2 0C7.2 2.1 6.7 4.1 5.4 5.5C4.1 6.9 2.1 7.6 0 7.6C-2 7.5 -3.9 6.7 -5.1 5.3C-6.3 3.9 -6.6 2 -6.7 -0.1C-6.7 -2.1 -6.5 -4.2 -5.4 -5.4C-4.2 -6.7 -2.1 -7 0 -7C2 -6.9 4.1 -6.5 5.4 -5.3Z" fill="#f17ea6"></path></g><g transform="translate(1459 145)"><path d="M12.9 -13.3C15.7 -10.1 16.2 -5.1 15.9 -0.3C15.6 4.5 14.6 9 11.8 12.4C9 15.9 4.5 18.2 -0.3 18.5C-5 18.8 -10.1 16.9 -13.2 13.5C-16.4 10.1 -17.7 5 -17.7 0C-17.6 -5 -16.3 -10 -13.2 -13.2C-10 -16.4 -5 -17.8 0 -17.8C5.1 -17.9 10.1 -16.5 12.9 -13.3Z" fill="#f17ea6"></path></g><g transform="translate(308 251)"><path d="M11.8 -12.4C14.5 -9.1 15.2 -4.6 15.1 -0.2C14.9 4.2 13.8 8.5 11.2 11.1C8.5 13.6 4.2 14.5 0.3 14.2C-3.7 13.9 -7.3 12.5 -10.7 9.9C-14 7.3 -16.9 3.7 -17.1 -0.1C-17.2 -3.9 -14.4 -7.8 -11.1 -11C-7.8 -14.3 -3.9 -16.9 0.3 -17.2C4.6 -17.5 9.1 -15.6 11.8 -12.4Z" fill="#f17ea6"></path></g><g transform="translate(593 30)"><path d="M1.6 -1.7C2 -1.2 2.2 -0.6 2.2 0C2.1 0.5 1.9 1.1 1.5 1.5C1.1 1.9 0.5 2.2 -0.1 2.2C-0.7 2.3 -1.4 2.2 -1.8 1.8C-2.2 1.4 -2.5 0.7 -2.4 0C-2.4 -0.6 -2.1 -1.2 -1.7 -1.7C-1.2 -2.2 -0.6 -2.6 0 -2.6C0.6 -2.6 1.2 -2.2 1.6 -1.7Z" fill="#f17ea6"></path></g><g transform="translate(1097 316)"><path d="M1.7 -1.8C2.1 -1.3 2.2 -0.7 2.2 0C2.2 0.7 2.2 1.4 1.8 1.8C1.4 2.2 0.7 2.4 0 2.4C-0.7 2.4 -1.4 2.3 -1.8 1.8C-2.2 1.4 -2.2 0.7 -2.2 0.1C-2.1 -0.6 -1.9 -1.2 -1.5 -1.6C-1.2 -2.1 -0.6 -2.5 0 -2.5C0.7 -2.5 1.3 -2.2 1.7 -1.8Z" fill="#f17ea6"></path></g><g transform="translate(1213 357)"><path d="M5.6 -5.5C7.1 -4.1 8 -2 8 -0.1C7.9 1.9 6.8 3.8 5.3 5C3.8 6.3 1.9 7 0 7C-1.9 7 -3.8 6.3 -5 5C-6.2 3.8 -6.8 1.9 -6.7 0.1C-6.6 -1.7 -5.8 -3.4 -4.6 -4.9C-3.4 -6.3 -1.7 -7.6 0.2 -7.8C2 -8 4.1 -7 5.6 -5.5Z" fill="#f17ea6"></path></g><g transform="translate(400 229)"><path d="M1.2 -1.2C1.5 -0.9 1.5 -0.5 1.5 0C1.5 0.5 1.4 0.9 1.2 1.2C0.9 1.5 0.5 1.6 0 1.6C-0.4 1.6 -0.9 1.4 -1.2 1.2C-1.5 0.9 -1.6 0.4 -1.6 0C-1.6 -0.4 -1.4 -0.8 -1.1 -1.1C-0.8 -1.4 -0.4 -1.6 0 -1.6C0.5 -1.6 0.9 -1.5 1.2 -1.2Z" fill="#f17ea6"></path></g><g transform="translate(1025 88)"><path d="M12.6 -12.9C15.4 -9.7 16.2 -4.9 16.3 0C16.3 4.9 15.5 9.8 12.6 13.3C9.8 16.7 4.9 18.8 0.4 18.4C-4.1 18 -8.3 15.2 -11.7 11.7C-15.1 8.3 -17.9 4.1 -18.2 -0.3C-18.5 -4.8 -16.5 -9.6 -13 -12.8C-9.6 -15.9 -4.8 -17.4 0 -17.4C4.9 -17.5 9.7 -16 12.6 -12.9Z" fill="#f17ea6"></path></g><g transform="translate(541 204)"><path d="M4.3 -4.5C5.5 -3.1 6.3 -1.6 6.5 0.1C6.6 1.8 6 3.6 4.8 4.8C3.6 6 1.8 6.6 0.2 6.5C-1.5 6.3 -2.9 5.3 -4.2 4.1C-5.4 2.9 -6.5 1.5 -6.7 -0.2C-6.9 -1.9 -6.3 -3.7 -5 -5.1C-3.7 -6.4 -1.9 -7.1 -0.1 -7C1.6 -6.8 3.1 -5.8 4.3 -4.5Z" fill="#f17ea6"></path></g><g transform="translate(1668 346)"><path d="M3 -3C3.8 -2.3 4.2 -1.1 4 -0.1C3.9 0.9 3.3 1.8 2.6 2.5C1.8 3.3 0.9 3.8 0 3.8C-1 3.8 -2 3.4 -2.7 2.7C-3.3 2 -3.6 1 -3.7 0C-3.7 -1 -3.4 -2.1 -2.7 -2.9C-2.1 -3.7 -1 -4.2 0 -4.3C1.1 -4.3 2.3 -3.8 3 -3Z" fill="#f17ea6"></path></g><g transform="translate(82 221)"><path d="M4.2 -4.1C5.2 -3.2 5.5 -1.6 5.4 -0.2C5.2 1.3 4.5 2.5 3.5 3.7C2.5 4.8 1.3 5.9 -0.2 6.1C-1.6 6.2 -3.3 5.6 -4.4 4.4C-5.6 3.3 -6.2 1.6 -6.1 0.1C-6 -1.4 -5.1 -2.8 -4 -3.7C-2.8 -4.6 -1.4 -5 0.1 -5.1C1.6 -5.2 3.2 -5 4.2 -4.1Z" fill="#f17ea6"></path></g><g transform="translate(1567 324)"><path d="M9.7 -9.8C12.2 -7.2 13.6 -3.6 13.6 0C13.6 3.6 12.2 7.2 9.7 9.9C7.2 12.7 3.6 14.7 0.2 14.5C-3.2 14.3 -6.5 12 -9.2 9.3C-12 6.5 -14.2 3.2 -14.3 -0.1C-14.4 -3.4 -12.3 -6.8 -9.5 -9.3C-6.8 -11.9 -3.4 -13.6 0.1 -13.7C3.6 -13.8 7.2 -12.3 9.7 -9.8Z" fill="#f17ea6"></path></g><g transform="translate(620 76)"><path d="M1.1 -1.2C1.5 -0.8 1.6 -0.4 1.7 0C1.7 0.5 1.5 0.9 1.2 1.2C0.9 1.5 0.5 1.6 0 1.6C-0.4 1.5 -0.7 1.3 -1 1C-1.4 0.7 -1.6 0.4 -1.7 -0.1C-1.7 -0.5 -1.6 -0.9 -1.3 -1.3C-0.9 -1.6 -0.5 -1.8 0 -1.7C0.4 -1.7 0.8 -1.5 1.1 -1.2Z" fill="#f17ea6"></path></g><g transform="translate(66 271)"><path d="M2.2 -2.2C2.7 -1.6 3.1 -0.8 3.1 0C3.1 0.9 2.9 1.8 2.3 2.3C1.8 2.8 0.9 3 0 3C-0.8 3 -1.6 2.7 -2.2 2.2C-2.7 1.6 -3 0.8 -3 0C-3 -0.8 -2.7 -1.6 -2.2 -2.3C-1.6 -2.9 -0.8 -3.4 0 -3.4C0.8 -3.4 1.6 -2.9 2.2 -2.2Z" fill="#f17ea6"></path></g><g transform="translate(814 373)"><path d="M8.3 -8.3C10.6 -6.1 12.2 -3 12.2 0C12.1 3 10.5 5.9 8.2 8.1C5.9 10.3 3 11.7 -0.1 11.8C-3.3 11.9 -6.5 10.8 -8.3 8.7C-10.1 6.5 -10.5 3.3 -10.2 0.4C-9.8 -2.5 -8.7 -5 -6.9 -7.3C-5 -9.6 -2.5 -11.6 0.3 -11.8C3 -12.1 6.1 -10.6 8.3 -8.3Z" fill="#f17ea6"></path></g><g transform="translate(1292 145)"><path d="M7 -7.1C8.5 -5.4 8.9 -2.7 8.6 -0.2C8.4 2.2 7.5 4.5 6 6.1C4.5 7.8 2.2 8.9 -0.2 9.1C-2.6 9.3 -5.3 8.6 -7 7C-8.8 5.3 -9.6 2.6 -9.7 -0.1C-9.7 -2.8 -9.1 -5.6 -7.3 -7.3C-5.6 -9 -2.8 -9.7 0 -9.7C2.7 -9.6 5.4 -8.9 7 -7.1Z" fill="#f17ea6"></path></g><g transform="translate(649 120)"><path d="M3.7 -3.8C4.6 -2.8 4.9 -1.4 4.9 -0.1C4.8 1.2 4.3 2.5 3.4 3.6C2.5 4.8 1.2 5.9 0 5.9C-1.3 5.9 -2.6 4.9 -3.7 3.8C-4.8 2.6 -5.7 1.3 -5.9 -0.1C-6 -1.6 -5.3 -3.1 -4.2 -4.1C-3.1 -5.1 -1.6 -5.5 -0.1 -5.5C1.4 -5.4 2.8 -4.8 3.7 -3.8Z" fill="#f17ea6"></path></g><g transform="translate(195 227)"><path d="M9 -8.9C11.8 -6.1 14.4 -3.1 14.5 0.1C14.6 3.3 12.3 6.7 9.5 9.1C6.7 11.5 3.3 13 -0.2 13.2C-3.7 13.4 -7.4 12.2 -9.6 9.8C-11.8 7.4 -12.6 3.7 -12.4 0.2C-12.1 -3.2 -10.9 -6.5 -8.7 -9.2C-6.5 -11.9 -3.2 -14.1 -0.1 -14C3.1 -13.9 6.1 -11.6 9 -8.9Z" fill="#f17ea6"></path></g><g transform="translate(153 246)"><path d="M4.1 -4.3C5.1 -3 5.6 -1.5 5.7 0.2C5.9 1.8 5.7 3.7 4.7 4.9C3.7 6.2 1.8 6.8 0.1 6.7C-1.7 6.6 -3.4 5.9 -4.5 4.6C-5.7 3.4 -6.2 1.7 -6.3 -0.1C-6.4 -1.9 -6 -3.7 -4.9 -5C-3.7 -6.3 -1.9 -7.1 -0.2 -6.9C1.5 -6.7 3 -5.7 4.1 -4.3Z" fill="#f17ea6"></path></g><g transform="translate(473 177)"><path d="M12.9 -12.5C15.9 -9.9 17 -4.9 16.6 -0.4C16.2 4.1 14.2 8.2 11.2 11C8.2 13.8 4.1 15.4 -0.4 15.8C-4.8 16.2 -9.7 15.4 -12.5 12.5C-15.4 9.7 -16.2 4.8 -16.3 0C-16.3 -4.9 -15.5 -9.8 -12.7 -12.5C-9.8 -15.1 -4.9 -15.5 0 -15.6C4.9 -15.6 9.9 -15.2 12.9 -12.5Z" fill="#f17ea6"></path></g><g transform="translate(235 270)"><path d="M11.3 -11.6C14 -8.6 15.1 -4.3 14.8 -0.3C14.5 3.8 12.9 7.5 10.2 10.2C7.5 12.8 3.8 14.4 0 14.4C-3.8 14.4 -7.6 12.9 -10.4 10.2C-13.3 7.6 -15.2 3.8 -15.1 0.1C-15.1 -3.7 -13.1 -7.4 -10.2 -10.3C-7.4 -13.3 -3.7 -15.5 0.3 -15.8C4.3 -16.1 8.6 -14.6 11.3 -11.6Z" fill="#f17ea6"></path></g><g transform="translate(1611 246)"><path d="M4.1 -4C5.2 -3 5.9 -1.5 5.9 -0.1C5.8 1.3 4.9 2.6 3.8 3.6C2.6 4.6 1.3 5.2 0 5.2C-1.4 5.3 -2.8 4.8 -3.8 3.8C-4.7 2.8 -5.2 1.4 -5.2 0C-5.2 -1.4 -4.7 -2.8 -3.7 -3.8C-2.8 -4.9 -1.4 -5.5 0.1 -5.6C1.5 -5.6 3 -5.1 4.1 -4Z" fill="#f17ea6"></path></g><g transform="translate(1518 319)"><path d="M6.9 -6.7C8.8 -5 10.1 -2.5 10.1 0C10.2 2.6 9 5.2 7.1 6.8C5.2 8.5 2.6 9.2 -0.1 9.2C-2.7 9.3 -5.5 8.8 -7.4 7.1C-9.3 5.5 -10.4 2.7 -10.6 -0.1C-10.7 -3 -9.9 -6 -7.9 -7.7C-6 -9.3 -3 -9.5 -0.2 -9.3C2.5 -9.1 5 -8.3 6.9 -6.7Z" fill="#f17ea6"></path></g><g transform="translate(847 28)"><path d="M2.4 -2.5C2.9 -1.8 3.2 -0.9 3.1 -0.1C3 0.8 2.6 1.5 2.1 2.1C1.5 2.7 0.8 3.2 0 3.2C-0.8 3.2 -1.7 2.9 -2.2 2.3C-2.8 1.7 -3.2 0.8 -3.2 0C-3.2 -0.9 -2.9 -1.8 -2.3 -2.4C-1.8 -3.1 -0.9 -3.5 0 -3.5C0.9 -3.5 1.8 -3.1 2.4 -2.5Z" fill="#f17ea6"></path></g><g transform="translate(1380 177)"><path d="M1.6 -1.5C2 -1.2 2.2 -0.6 2.2 0C2.2 0.6 2 1.2 1.6 1.7C1.2 2.1 0.6 2.4 0 2.5C-0.6 2.5 -1.2 2.2 -1.7 1.7C-2.1 1.2 -2.3 0.6 -2.3 0C-2.3 -0.7 -2.2 -1.4 -1.8 -1.8C-1.4 -2.1 -0.7 -2.2 -0.1 -2.1C0.6 -2.1 1.2 -1.9 1.6 -1.5Z" fill="#f17ea6"></path></g></g></svg>