<svg class="w-full h-auto block" id="visual" viewBox="0 0 1920 300" width="1920" height="300" preserveAspectRatio="none" xmlns="http://www.w3.org/2000/svg" xmlns:xlink="http://www.w3.org/1999/xlink" version="1.1"><rect x="0" y="0" width="1920" height="300" fill="#0d1117"></rect><path d="M0 184L45.7 186.2C91.3 188.3 182.7 192.7 274.2 198.8C365.7 205 457.3 213 548.8 210.5C640.3 208 731.7 195 823 184.7C914.3 174.3 1005.7 166.7 1097 169C1188.3 171.3 1279.7 183.7 1371.2 191.7C1462.7 199.7 1554.3 203.3 1645.8 210.3C1737.3 217.3 1828.7 227.7 1874.3 232.8L1920 238L1920 0L1874.3 0C1828.7 0 1737.3 0 1645.8 0C1554.3 0 1462.7 0 1371.2 0C1279.7 0 1188.3 0 1097 0C1005.7 0 914.3 0 823 0C731.7 0 640.3 0 548.8 0C457.3 0 365.7 0 274.2 0C182.7 0 91.3 0 45.7 0L0 0Z" fill="#ef598e"></path><path d="M0 146L45.7 152.8C91.3 159.7 182.7 173.3 274.2 179.2C365.7 185 457.3 183 548.8 174.3C640.3 165.7 731.7 150.3 823 152.7C914.3 155 1005.7 175 1097 175C1188.3 175 1279.7 155 1371.2 154.2C1462.7 153.3 1554.3 171.7 1645.8 174.7C1737.3 177.7 1828.7 165.3 1874.3 159.2L1920 153L1920 0L1874.3 0C1828.7 0 1737.3 0 1645.8 0C1554.3 0 1462.7 0 1371.2 0C1279.7 0 1188.3 0 1097 0C1005.7 0 914.3 0 823 0C731.7 0 640.3 0 548.8 0C457.3 0 365.7 0 274.2 0C182.7 0 91.3 0 45.7 0L0 0Z" fill="#f06394"></path><path d="M0 152L45.7 151.3C91.3 150.7 182.7 149.3 274.2 141.5C365.7 133.7 457.3 119.3 548.8 117.2C640.3 115 731.7 125 823 127.7C914.3 130.3 1005.7 125.7 1097 125.3C1188.3 125 1279.7 129 1371.2 133.2C1462.7 137.3 1554.3 141.7 1645.8 145.2C1737.3 148.7 1828.7 151.3 1874.3 152.7L1920 154L1920 0L1874.3 0C1828.7 0 1737.3 0 1645.8 0C1554.3 0 1462.7 0 1371.2 0C1279.7 0 1188.3 0 1097 0C1005.7 0 914.3 0 823 0C731.7 0 640.3 0 548.8 0C457.3 0 365.7 0 274.2 0C182.7 0 91.3 0 45.7 0L0 0Z" fill="#f06c9a"></path><path d="M0 74L45.7 73.8C91.3 73.7 182.7 73.3 274.2 72.7C365.7 72 457.3 71 548.8 70.8C640.3 70.7 731.7 71.3 823 69.8C914.3 68.3 1005.7 64.7 1097 62.8C1188.3 61 1279.7 61 1371.2 69.2C1462.7 77.3 1554.3 93.7 1645.8 102.5C1737.3 111.3 1828.7 112.7 1874.3 113.3L1920 114L1920 0L1874.3 0C1828.7 0 1737.3 0 1645.8 0C1554.3 0 1462.7 0 1371.2 0C1279.7 0 1188.3 0 1097 0C1005.7 0 914.3 0 823 0C731.7 0 640.3 0 548.8 0C457.3 0 365.7 0 274.2 0C182.7 0 91.3 0 45.7 0L0 0Z" fill="#f175a0"></path><path d="M0 69L45.7 66.5C91.3 64 182.7 59 274.2 55C365.7 51 457.3 48 548.8 44.2C640.3 40.3 731.7 35.7 823 34C914.3 32.3 1005.7 33.7 1097 37C1188.3 40.3 1279.7 45.7 1371.2 51C1462.7 56.3 1554.3 61.7 1645.8 64.8C1737.3 68 1828.7 69 1874.3 69.5L1920 70L1920 0L1874.3 0C1828.7 0 1737.3 0 1645.8 0C1554.3 0 1462.7 0 1371.2 0C1279.7 0 1188.3 0 1097 0C1005.7 0 914.3 0 823 0C731.7 0 640.3 0 548.8 0C457.3 0 365.7 0 274.2 0C182.7 0 91.3 0 45.7 0L0 0Z" fill="#f17ea6"></path></svg>