<svg class="w-full h-auto block" id="visual" viewBox="0 0 1920 300" width="1920" height="300" preserveAspectRatio="none" xmlns="http://www.w3.org/2000/svg" xmlns:xlink="http://www.w3.org/1999/xlink" version="1.1"><rect x="0" y="0" width="1920" height="300" fill="#231f20"></rect><path d="M0 114L45.7 111.8C91.3 109.7 182.7 105.3 274.2 99.2C365.7 93 457.3 85 548.8 87.5C640.3 90 731.7 103 823 113.3C914.3 123.7 1005.7 131.3 1097 129C1188.3 126.7 1279.7 114.3 1371.2 106.3C1462.7 98.3 1554.3 94.7 1645.8 87.7C1737.3 80.7 1828.7 70.3 1874.3 65.2L1920 60L1920 301L1874.3 301C1828.7 301 1737.3 301 1645.8 301C1554.3 301 1462.7 301 1371.2 301C1279.7 301 1188.3 301 1097 301C1005.7 301 914.3 301 823 301C731.7 301 640.3 301 548.8 301C457.3 301 365.7 301 274.2 301C182.7 301 91.3 301 45.7 301L0 301Z" fill="#ef598e"></path><path d="M0 152L45.7 145.2C91.3 138.3 182.7 124.7 274.2 118.8C365.7 113 457.3 115 548.8 123.7C640.3 132.3 731.7 147.7 823 145.3C914.3 143 1005.7 123 1097 123C1188.3 123 1279.7 143 1371.2 143.8C1462.7 144.7 1554.3 126.3 1645.8 123.3C1737.3 120.3 1828.7 132.7 1874.3 138.8L1920 145L1920 301L1874.3 301C1828.7 301 1737.3 301 1645.8 301C1554.3 301 1462.7 301 1371.2 301C1279.7 301 1188.3 301 1097 301C1005.7 301 914.3 301 823 301C731.7 301 640.3 301 548.8 301C457.3 301 365.7 301 274.2 301C182.7 301 91.3 301 45.7 301L0 301Z" fill="#f06394"></path><path d="M0 146L45.7 146.7C91.3 147.3 182.7 148.7 274.2 156.5C365.7 164.3 457.3 178.7 548.8 180.8C640.3 183 731.7 173 823 170.3C914.3 167.7 1005.7 172.3 1097 172.7C1188.3 173 1279.7 169 1371.2 164.8C1462.7 160.7 1554.3 156.3 1645.8 152.8C1737.3 149.3 1828.7 146.7 1874.3 145.3L1920 144L1920 301L1874.3 301C1828.7 301 1737.3 301 1645.8 301C1554.3 301 1462.7 301 1371.2 301C1279.7 301 1188.3 301 1097 301C1005.7 301 914.3 301 823 301C731.7 301 640.3 301 548.8 301C457.3 301 365.7 301 274.2 301C182.7 301 91.3 301 45.7 301L0 301Z" fill="#f06c9a"></path><path d="M0 224L45.7 224.2C91.3 224.3 182.7 224.7 274.2 225.3C365.7 226 457.3 227 548.8 227.2C640.3 227.3 731.7 226.7 823 228.2C914.3 229.7 1005.7 233.3 1097 235.2C1188.3 237 1279.7 237 1371.2 228.8C1462.7 220.7 1554.3 204.3 1645.8 195.5C1737.3 186.7 1828.7 185.3 1874.3 184.7L1920 184L1920 301L1874.3 301C1828.7 301 1737.3 301 1645.8 301C1554.3 301 1462.7 301 1371.2 301C1279.7 301 1188.3 301 1097 301C1005.7 301 914.3 301 823 301C731.7 301 640.3 301 548.8 301C457.3 301 365.7 301 274.2 301C182.7 301 91.3 301 45.7 301L0 301Z" fill="#f175a0"></path><path d="M0 229L45.7 231.5C91.3 234 182.7 239 274.2 243C365.7 247 457.3 250 548.8 253.8C640.3 257.7 731.7 262.3 823 264C914.3 265.7 1005.7 264.3 1097 261C1188.3 257.7 1279.7 252.3 1371.2 247C1462.7 241.7 1554.3 236.3 1645.8 233.2C1737.3 230 1828.7 229 1874.3 228.5L1920 228L1920 301L1874.3 301C1828.7 301 1737.3 301 1645.8 301C1554.3 301 1462.7 301 1371.2 301C1279.7 301 1188.3 301 1097 301C1005.7 301 914.3 301 823 301C731.7 301 640.3 301 548.8 301C457.3 301 365.7 301 274.2 301C182.7 301 91.3 301 45.7 301L0 301Z" fill="#f7b5cd"></path></svg>