<?xml version="1.0" encoding="UTF-8"?>
<svg id="Capa_1" data-name="Capa 1" xmlns="http://www.w3.org/2000/svg" xmlns:xlink="http://www.w3.org/1999/xlink" viewBox="0 0 65.56 53.1">
  <defs>
    <style>
      .cls-1 {
        fill: url(#Degradado_sin_nombre_5);
      }

      .cls-2 {
        clip-path: url(#clippath-6);
      }

      .cls-3 {
        clip-path: url(#clippath-7);
      }

      .cls-4 {
        clip-path: url(#clippath-4);
      }

      .cls-5 {
        opacity: .37;
      }

      .cls-6 {
        fill: url(#Degradado_sin_nombre_12-3);
      }

      .cls-7 {
        fill: url(#Degradado_sin_nombre_12-4);
      }

      .cls-8 {
        clip-path: url(#clippath-9);
      }

      .cls-9 {
        clip-path: url(#clippath-10);
      }

      .cls-10 {
        fill: #41407f;
      }

      .cls-11 {
        fill: #fff;
      }

      .cls-12 {
        opacity: .25;
      }

      .cls-13 {
        opacity: .15;
      }

      .cls-14 {
        fill: none;
      }

      .cls-15 {
        fill: url(#Degradado_sin_nombre_4);
      }

      .cls-16 {
        clip-path: url(#clippath-1);
      }

      .cls-17 {
        fill: url(#Degradado_sin_nombre_2);
      }

      .cls-18 {
        clip-path: url(#clippath-5);
      }

      .cls-19 {
        clip-path: url(#clippath-8);
      }

      .cls-20 {
        clip-path: url(#clippath-3);
      }

      .cls-21 {
        fill: url(#Degradado_sin_nombre_5-3);
      }

      .cls-22 {
        fill: url(#Degradado_sin_nombre_12-5);
      }

      .cls-23 {
        fill: #7930bb;
      }

      .cls-24 {
        fill: url(#Degradado_sin_nombre_12-2);
      }

      .cls-25 {
        fill: #6139c8;
      }

      .cls-26 {
        clip-path: url(#clippath-2);
      }

      .cls-27 {
        fill: url(#Degradado_sin_nombre_5-2);
      }

      .cls-28 {
        opacity: .26;
      }

      .cls-29 {
        fill: url(#Degradado_sin_nombre_12-6);
      }

      .cls-30 {
        clip-path: url(#clippath);
      }

      .cls-31 {
        fill: url(#Degradado_sin_nombre_12);
      }
    </style>
    <clipPath id="clippath">
      <path class="cls-14" d="M2.2,19.7L59,2.5c1.8-.5,3.4,1.2,2.8,2.9l-16.3,45.8c-.5,1.4-2.2,2-3.5,1.1L1.5,23.8c-1.5-1.1-1.1-3.5.7-4.1Z"/>
    </clipPath>
    <linearGradient id="Degradado_sin_nombre_5" data-name="Degradado sin nombre 5" x1="-1680.98" y1="213.13" x2="-1680.89" y2="213.13" gradientTransform="translate(113332.25 -893579.8) rotate(-90) scale(531.61 -531.61)" gradientUnits="userSpaceOnUse">
      <stop offset="0" stop-color="#000"/>
      <stop offset="1" stop-color="#fff"/>
    </linearGradient>
    <linearGradient id="Degradado_sin_nombre_2" data-name="Degradado sin nombre 2" x1="3.4" y1="2128.49" x2="36.9" y2="2128.49" gradientTransform="translate(0 -2088.64)" gradientUnits="userSpaceOnUse">
      <stop offset="0" stop-color="#4d43b5"/>
      <stop offset="1" stop-color="#297ab6"/>
    </linearGradient>
    <linearGradient id="Degradado_sin_nombre_5-2" data-name="Degradado sin nombre 5" x1=".8" y1="2114.13" x2="62.22" y2="2114.13" gradientTransform="translate(0 -2088.64)" xlink:href="#Degradado_sin_nombre_5"/>
    <clipPath id="clippath-1">
      <path class="cls-14" d="M59.9.4c-.2,0-.4,0-.7.1L2.4,17.8c-1.8.6-2.2,2.9-.6,4l40.5,28.5c1.2.9,2.9.3,3.5-1.1L62.1,3.5c.5-1.6-.6-4-2.9-3l.7-.1Z"/>
    </clipPath>
    <linearGradient id="Degradado_sin_nombre_4" data-name="Degradado sin nombre 4" x1="-1674.77" y1="212.36" x2="-1674.68" y2="212.36" gradientTransform="translate(1084530.27 137542.08) scale(647.57 -647.57)" gradientUnits="userSpaceOnUse">
      <stop offset="0" stop-color="#2bd1f5"/>
      <stop offset="0" stop-color="#2bd1f5"/>
      <stop offset=".43" stop-color="#327dfb"/>
      <stop offset=".45" stop-color="#3679f8"/>
      <stop offset=".69" stop-color="#5f51da"/>
      <stop offset=".88" stop-color="#7838c7"/>
      <stop offset="1" stop-color="#812fc0"/>
    </linearGradient>
    <clipPath id="clippath-2">
      <path class="cls-14" d="M45.7,49.3c-.5,1.4-2.2,2-3.5,1.1L1.8,21.9c-1.5-1.1-1.2-3.5.6-4l43.3,31.4Z"/>
    </clipPath>
    <linearGradient id="Degradado_sin_nombre_5-3" data-name="Degradado sin nombre 5" x1="-1681.02" y1="213.13" x2="-1680.92" y2="213.13" gradientTransform="translate(113334.72 -893599.99) rotate(-90) scale(531.61 -531.61)" xlink:href="#Degradado_sin_nombre_5"/>
    <clipPath id="clippath-3">
      <path class="cls-14" d="M42.7,48.9c-.6,0-1.1-.2-1.6-.5l-15.8-11.5L4.2,21.9c-.6-.4-1-1.2-.8-2,.1-.8.6-1.4,1.4-1.7l26.2-8.1.6,2-6.1,1.9c-8.2,2.6-9.9,13.4-2.9,18.4l4,2.8,15.8,11.4c.2.2.4.1.5.1s.3-.1.4-.4l.6-1.2,1.9.9-.6,1.2c-.3.6-.8,1.1-1.5,1.4-.3.2-.6.3-1,.3Z"/>
    </clipPath>
    <linearGradient id="Degradado_sin_nombre_12" data-name="Degradado sin nombre 12" x1="-1673.67" y1="210.93" x2="-1673.58" y2="210.93" gradientTransform="translate(749378.78 94474.13) scale(447.74 -447.74)" gradientUnits="userSpaceOnUse">
      <stop offset="0" stop-color="#2bd1f5"/>
      <stop offset="0" stop-color="#2bd1f5"/>
      <stop offset=".61" stop-color="#327dfb"/>
      <stop offset=".62" stop-color="#3679fb"/>
      <stop offset=".79" stop-color="#5f54fb"/>
      <stop offset=".92" stop-color="#783dfb"/>
      <stop offset="1" stop-color="#8134fb"/>
    </linearGradient>
    <clipPath id="clippath-4">
      <path class="cls-14" d="M42.7,48.9c-.6,0-1.1-.2-1.6-.5l-15.8-11.5L4.2,21.9c-.6-.4-1-1.2-.8-2,.1-.8.6-1.4,1.4-1.7l26.2-8.1.6,2-6.1,1.9c-8.2,2.6-9.9,13.4-2.9,18.4l4,2.8,15.8,11.4c.2.2.4.1.5.1s.3-.1.4-.4l.6-1.2,1.9.9-.6,1.2c-.3.6-.8,1.1-1.5,1.4-.3.2-.6.3-1,.3Z"/>
    </clipPath>
    <clipPath id="clippath-5">
      <path class="cls-14" d="M43,49.8c-.6,0-1.6-1-2.1-1.3l-15.6-11.6L4.2,21.9c-.6-.4-2.1-1.2-1.9-2.2.3-1.1,1.6-1.2,2.4-1.4l26.3-8.2,1,3.2-15.6,4.3c-4.9,1.6-4.6,7.5-4.2,7.8l14.3,9.8,15.8,11.4c.2.2.4.1.5.1s.3-.1.4-.4l.6-1.2,3-8.9,2,.7-3,9s-1.2,3.4-1.7,3.5c-.4.3-.7.4-1.1.4Z"/>
    </clipPath>
    <linearGradient id="Degradado_sin_nombre_12-2" data-name="Degradado sin nombre 12" x1="-1673.97" y1="211.36" x2="-1673.88" y2="211.36" gradientTransform="translate(820913.45 103680.67) scale(490.4 -490.4)" xlink:href="#Degradado_sin_nombre_12"/>
    <clipPath id="clippath-6">
      <rect class="cls-14" x="55.3" y="2.9" width="4.5" height="4.4"/>
    </clipPath>
    <clipPath id="clippath-7">
      <path class="cls-14" d="M43,49.8c-.6,0-1.6-1-2.1-1.4l-15.7-11.5L4.1,21.9c-.6-.4-1.7-1.3-1.6-2.2s.7-1.1,2.1-1.5l26.3-8.2.1,1.4L5.4,19.4c-.3.1-.4.5-.1.8l21.2,15,15.8,11.4c.2.2.4.1.5.1s.3-.1.4-.4l.6-1.2,3-8.9,2,.7-3,9-.4,1.3c-.3.6-.6,2-1.2,2.3-.5.2-.8.3-1.2.3Z"/>
    </clipPath>
    <linearGradient id="Degradado_sin_nombre_12-3" data-name="Degradado sin nombre 12" x1="-1673.95" y1="211.33" x2="-1673.86" y2="211.33" gradientTransform="translate(815446.17 102976.99) scale(487.14 -487.14)" xlink:href="#Degradado_sin_nombre_12"/>
    <clipPath id="clippath-8">
      <path class="cls-14" d="M3.5,21.4l2.8,2,9-2.7c.6-.8,1.4-1.4,2.3-1.5.1-.7.5-1.4.9-2l-15,4.2Z"/>
    </clipPath>
    <linearGradient id="Degradado_sin_nombre_12-4" data-name="Degradado sin nombre 12" x1="-1669.96" y1="205.71" x2="-1669.86" y2="205.71" gradientTransform="translate(372465.34 45900.61) scale(223.04 -223.04)" xlink:href="#Degradado_sin_nombre_12"/>
    <clipPath id="clippath-9">
      <path class="cls-14" d="M7.6,24.3l2.5,1.8,4.3-1.3c-.1-.4-.1-.7-.1-1.1s.1-.9.2-1.4l-6.9,2Z"/>
    </clipPath>
    <linearGradient id="Degradado_sin_nombre_12-5" data-name="Degradado sin nombre 12" x1="-1670.81" y1="206.79" x2="-1670.71" y2="206.79" gradientTransform="translate(410930.57 50883.89) scale(245.94 -245.94)" xlink:href="#Degradado_sin_nombre_12"/>
    <clipPath id="clippath-10">
      <path class="cls-14" d="M11.3,27l2,1.4,3-.8c-.6-.4-1.1-.9-1.4-1.6l-3.6,1Z"/>
    </clipPath>
    <linearGradient id="Degradado_sin_nombre_12-6" data-name="Degradado sin nombre 12" x1="-1670.78" y1="206.67" x2="-1670.69" y2="206.67" gradientTransform="translate(400084.03 49515.7) scale(239.45 -239.45)" xlink:href="#Degradado_sin_nombre_12"/>
  </defs>
  <path class="cls-23" d="M65.3,14.9c-.3-.4-.9-.5-1.4-.4l-3,.9c-.4.1-.7.4-.8.8l-.7,1.8-.6-.9c-.3-.5-.9-.7-1.5-.6h0c0-.3-.1-.6-.3-.9l-.4-.4c-.3.2-.6.4-.9.6-.3.2-.6.4-1,.7-.1.1-.2.1-.3.2s-.3.3-.3.4l-.1.1c0,.1-.1.1-.1.2s-.1.2-.1.3c-.3,1-.4,2.1-.6,3.2-.5,2.6-1.5,5.2-2.5,7.7-.1.3-.3.7-.4,1l1.6-.5.2.5c.3.6.9.9,1.6.7l2.6-.8c.4-.1.7-.4.8-.7.2-.3.1-.7,0-1.1l.1-.2c0,.4.2.8.5,1,.2.2.5.2.8.2.1,0,.3,0,.4-.1l2.5-.8c.6-.2.9-.7.9-1.3l-.1-3.2,3.1-7.1c.4-.4.3-.9,0-1.3Z"/>
  <g>
    <g class="cls-13">
      <g class="cls-30">
        <rect class="cls-1" y="1.9" width="62.4" height="51.2"/>
      </g>
    </g>
    <path class="cls-25" d="M55.3,35.9c.2-.3.4-.5.5-.8.3-.7.3-1.5.1-2.2-.1-.4-.3-.7-.5-1s-.6-.6-.9-.8c-.4-.2-.9-.4-1.5-.4h0c-.5,0-1,.1-1.6.3l-1.5.5c-.4,1.2-.8,2.4-1,3.7-.3,2-.6,3.9-1.3,5.8.3.1.6.1.8,0l1.7-.5h.2l1.6-.5c.4-.1.7-.4.8-.8.3.2.7.3,1.1.2l1.8-.5c.4-.1.8-.5.9-.9.1-.4,0-.9-.3-1.2l-.9-.9Z"/>
    <path id="SVGID" class="cls-17" d="M10.1,41.9c.3-.1.5-.3.7-.5v.4c0,.4.2.8.5,1s.7.3,1.1.2l2.5-.8c.6-.2.9-.7.9-1.3l-.1-2c.4.5.9.8,1.5,1.1.6.3,1.4.5,2.1.6h.4c.6,0,1.3-.1,1.9-.3.1,0,.3-.1.4-.1-.5.4-.9.9-1.1,1.5-.3.6-.5,1.2-.5,1.8,0,.5,0,.9.1,1.4l-1.2.4c-.6.2-.9.7-.9,1.3l.1,1.8c0,.4.2.8.5,1,.2.2.5.2.8.2.1,0,.3,0,.4-.1l1.8-.5c.5-.2.9-.7.9-1.2.4.2.9.3,1.4.3h.2c.5,0,.9-.1,1.4-.2.8-.2,1.4-.6,1.9-1.1.3-.3.5-.6.7-.9.5.2,1,.4,1.5.4h.3c.4,0,.9-.1,1.4-.2.7-.2,1.3-.5,1.8-1,.1-.1.2-.2.3-.2.2.1.5.2.7.2.1,0,.3,0,.4-.1l1.6-.5c.2-.1.3-.1.5-.3-.9-.5-1.8-1-2.7-1.6-1.9-1.3-4.2-2-6.1-3.4-1.5-1.1-2.5-2.3-3.6-3.8h0c-.2-.2-.4-.4-.6-.6-.3-.3-.6-.5-.9-.8-.2-.1-.5-.3-.6-.4-.2-.2-.5-.3-.7-.5-.5-.3-1-.6-1.5-.9-.5-.3-1-.5-1.5-.8-.2-.1-.4-.2-.6-.3-1.1-.4-2.4-.5-3.6-.7-.5-.1-1-.2-1.6-.3l-1.9.6c-.4.1-.7.4-.8.7l-1.1,2.4-1-1.3c-.3-.4-.9-.6-1.4-.5l-2.5.8c-.6.2-.9.7-.9,1.3l.3,9.9c0,.4.1.9.4,1.1.2.2.4.2.6.2.1,0,.5-.1.6-.1l2.5-.8c.6-.2.9-.7.9-1.3l-.1-1.6"/>
    <g>
      <path id="SVGID-2" data-name="SVGID" class="cls-27" d="M59.9.4c-.2,0-.4,0-.7.1L2.4,17.8c-1.8.6-2.2,2.9-.6,4l40.5,28.5c1.2.9,2.9.3,3.5-1.1L62.1,3.5c.5-1.6-.6-4-2.9-3l.7-.1Z"/>
      <g class="cls-16">
        <rect class="cls-15" x=".2" width="62.3" height="51.2"/>
      </g>
    </g>
    <g>
      <g class="cls-12">
        <g class="cls-26">
          <rect class="cls-21" x=".2" width="62.4" height="51.2"/>
        </g>
      </g>
      <g class="cls-28">
        <g class="cls-20">
          <rect class="cls-31" x="3.3" y="10.1" width="42.5" height="38.8"/>
        </g>
      </g>
      <g class="cls-28">
        <g class="cls-4">
          <rect class="cls-31" x="3.3" y="10.1" width="42.5" height="38.8"/>
        </g>
      </g>
      <g class="cls-18">
        <rect class="cls-24" x="2.1" y="10.1" width="46.6" height="39.7"/>
      </g>
      <g class="cls-2">
        <path class="cls-10" d="M59.7,4.6c.3,1.2-.5,2.3-1.7,2.6-1.2.3-2.4-.4-2.7-1.6s.5-2.3,1.7-2.6c1.3-.3,2.4.4,2.7,1.6M55.9,5.4c.2.9,1.1,1.5,2,1.3.9-.2,1.4-1.1,1.2-2.1-.2-.9-1.1-1.6-2-1.3s-1.4,1.2-1.2,2.1M57.4,6.2l-.5.1-.5-2.1c.2-.1.5-.2.8-.3.4-.1.6-.1.8,0s.3.2.3.4c.1.3-.1.6-.3.7h0c.2,0,.4.2.5.4.1.3.2.4.3.5l-.5.1c-.1,0-.2-.2-.3-.4-.1-.2-.2-.3-.5-.2l-.2.1.1.7ZM57.2,5h.2c.3-.1.5-.2.4-.4,0-.2-.2-.3-.5-.2-.1,0-.2.1-.3.1l.2.5Z"/>
      </g>
      <path class="cls-11" d="M59.9,4.1c.3,1.2-.5,2.4-1.7,2.6-1.2.3-2.4-.4-2.7-1.6s.5-2.3,1.7-2.6c1.3-.3,2.4.4,2.7,1.6M56.1,5c.2.9,1.1,1.5,2,1.3s1.4-1.1,1.2-2.1c-.2-.9-1.1-1.6-2-1.3-.9.2-1.4,1.1-1.2,2.1M57.6,5.8l-.5.1-.5-2.1c.2-.1.5-.2.8-.3.4-.1.6-.1.8,0s.3.2.3.4c.1.3-.1.5-.3.6h0c.2,0,.4.2.5.4.1.3.2.4.3.5l-.5.1c-.1-.1-.2-.2-.3-.5-.1-.2-.2-.3-.5-.2l-.2.1.1.9ZM57.4,4.6l.2-.1c.3-.1.5-.2.4-.4,0-.2-.2-.3-.5-.2-.1,0-.2.1-.3.1l.2.6Z"/>
      <g class="cls-3">
        <rect class="cls-6" x="2.4" y="10" width="46.2" height="39.7"/>
      </g>
      <g>
        <polygon class="cls-10" points="23.7 22.6 20.2 17.6 22.9 16.8 24.8 19.9 26.5 15.7 29.5 14.8 26.2 22.1 26.3 25.6 23.8 26.4 23.7 22.6"/>
        <path class="cls-10" d="M30,14.6l3.8-1.1c.6-.2,1.2-.3,1.6-.3.5,0,.8,0,1.2.2.3.1.6.3.8.5s.3.5.4.8c.2.6.1,1.1-.1,1.6-.2.5-.6.9-1.2,1.3.5,0,.8.1,1.2.4.3.2.6.6.7,1,.1.4.1.8.1,1.2-.1.4-.2.8-.5,1.1-.3.3-.6.7-1.1,1s-1.1.6-1.8.8l-4.7,1.4-.4-9.9ZM34.3,17.3c.4-.1.8-.3.9-.6.2-.2.2-.5.1-.8-.1-.2-.2-.3-.4-.4-.2-.1-.5,0-.9.1l-1.6.5.1,1.7,1.8-.5ZM34.6,20.9c.4-.1.8-.3,1-.6.2-.3.2-.5.2-.8-.1-.5-.6-.6-1.3-.4l-1.7.5v1.8l1.8-.5Z"/>
        <polygon class="cls-10" points="39.3 11.8 46.6 9.6 46.6 11.9 41.8 13.4 41.9 14.9 46.2 13.5 46.3 15.7 42 17 42 18.6 46.9 17.1 46.9 19.4 39.6 21.6 39.3 11.8"/>
        <path class="cls-10" d="M47.9,9.2l3.4-1c.8-.2,1.4-.3,2-.3s1,.1,1.4.3c.3.2.6.4.8.7s.4.6.5,1c.2.8.2,1.5-.1,2.2s-.8,1.3-1.7,1.8l2.3,2.6-2.8.8-2-2.4-1.1.3.1,3-2.4.8-.4-9.8ZM52.1,12.7c.6-.2,1-.4,1.3-.8.3-.3.3-.7.2-1.1-.1-.2-.2-.4-.4-.5-.3-.1-.7-.1-1.2,0l-1.4.4.1,2.4,1.4-.4Z"/>
      </g>
      <g>
        <polygon class="cls-10" points="19.7 47.1 21.3 46.6 21.4 48.3 19.7 48.8 19.7 47.1"/>
        <path class="cls-10" d="M25.3,47.2c-.4.1-.8.2-1.2.2s-.7-.1-1-.2c-.3-.1-.6-.4-.8-.6-.2-.3-.4-.6-.5-1s-.2-.9-.1-1.4c0-.5.2-.9.4-1.3s.5-.8.9-1.2c.4-.3.9-.6,1.4-.8.6-.2,1.1-.2,1.6-.1.5.1.9.4,1.2.8l-1.2,1.2c-.2-.2-.4-.3-.6-.4-.2-.1-.5-.1-.8,0-.2.1-.5.2-.6.4-.2.2-.3.4-.4.6-.1.2-.2.5-.2.7,0,.3,0,.5.1.8.1.4.3.6.6.8.3.1.6.2.9.1.3-.1.5-.2.6-.4.2-.2.3-.4.4-.6l1.4.6c-.2.4-.4.8-.8,1.1-.3.3-.7.6-1.3.7"/>
        <path class="cls-10" d="M31.1,45.4c-.4.1-.8.2-1.2.2s-.7-.1-1-.3-.6-.4-.8-.7c-.2-.3-.4-.6-.5-1s-.2-.9-.1-1.4c0-.5.2-.9.4-1.3s.5-.8.9-1.1.8-.6,1.3-.7c.4-.1.8-.2,1.2-.2s.7.1,1,.3.6.4.8.7.4.6.5,1,.2.9.1,1.4c0,.5-.2.9-.4,1.3-.2.4-.5.8-.9,1.1-.4.3-.8.6-1.3.7M30.8,43.9c.3-.1.5-.2.6-.4.2-.2.3-.4.4-.6.1-.2.1-.5.2-.7,0-.2,0-.5-.1-.7s-.1-.3-.2-.5c-.1-.1-.2-.3-.4-.3-.1-.1-.3-.1-.5-.1s-.4,0-.6.1c-.3.1-.5.2-.6.4-.2.2-.3.4-.4.6-.1.2-.1.5-.2.7,0,.2,0,.5.1.7s.1.3.2.5c.1.1.2.3.4.3.2.1.3.1.5.1.2,0,.4,0,.6-.1"/>
        <polygon class="cls-10" points="34 38.1 35.6 37.6 37.1 39.6 38.3 36.7 40.2 36.2 40.4 42.4 38.8 42.9 38.6 39.3 37.2 42.3 37.2 42.3 35.7 40.3 35.8 43.9 34.2 44.4 34 38.1"/>
        <polygon class="cls-10" points="41 40.5 42.6 40 42.7 41.7 41 42.2 41 40.5"/>
        <path class="cls-10" d="M45,34.6l1.6-.5,2.7,5.6-1.7.5-.5-1-2.2.7-.4,1.3-1.8.5,2.3-7.1ZM46.6,38l-.7-1.6-.6,2,1.3-.4Z"/>
        <path class="cls-10" d="M49.2,33.4l2.2-.7c.5-.2.9-.2,1.3-.2s.7.1.9.2c.2.1.4.3.5.4.1.2.2.4.3.6.2.5.1,1,0,1.4-.2.4-.5.8-1.1,1.2l1.5,1.7-1.8.6-1.3-1.6-.7.3.1,1.9-1.6.5-.3-6.3ZM51.9,35.6c.4-.1.6-.3.8-.5s.2-.4.1-.7c0-.2-.1-.3-.3-.3-.2-.1-.4-.1-.8,0l-.9.3.1,1.5,1-.3Z"/>
      </g>
      <g>
        <polygon class="cls-10" points="4.4 34.9 7 34.1 9.3 37.3 11.3 32.8 14.1 31.9 14.4 41.8 11.9 42.5 11.7 36.9 9.5 41.5 9.5 41.5 7.1 38.4 7.3 44 4.8 44.7 4.4 34.9"/>
        <path class="cls-10" d="M21.2,39.9c-.6.2-1.3.3-1.9.2-.6,0-1.1-.2-1.6-.4s-.9-.6-1.3-1-.6-.9-.8-1.5c-.2-.7-.3-1.4-.2-2.1.1-.7.3-1.4.6-2s.8-1.2,1.3-1.7c.6-.5,1.2-.9,2-1.1.6-.2,1.3-.3,1.9-.2.6,0,1.1.2,1.6.4.5.2.9.6,1.3,1s.6.9.8,1.5c.2.7.3,1.4.2,2.1-.1.7-.3,1.4-.6,2-.3.6-.8,1.2-1.3,1.7-.5.4-1.2.8-2,1.1M20.7,37.5c.4-.1.7-.3,1-.6s.5-.6.6-.9c.1-.3.2-.7.2-1.1s0-.7-.1-1.1c-.1-.3-.2-.5-.4-.8-.2-.2-.4-.4-.6-.5s-.5-.2-.7-.2c-.3,0-.6,0-.9.1-.4.1-.7.3-1,.6s-.5.6-.6.9c-.1.4-.2.7-.2,1.1s0,.7.1,1.1c.1.3.2.5.4.8.2.2.4.4.6.5s.5.2.7.2c.3.1.6,0,.9-.1"/>
        <polygon class="cls-10" points="26.2 28.2 28.5 27.5 32.4 31.8 32.2 26.4 34.7 25.6 35.1 35.4 32.9 36.1 28.8 31.6 29 37.3 26.5 38 26.2 28.2"/>
        <path class="cls-10" d="M36.3,25.1l2.9-.9c.9-.3,1.6-.4,2.3-.3.6,0,1.2.2,1.6.4.9.5,1.5,1.2,1.8,2.3.2.7.3,1.4.2,2-.1.7-.3,1.3-.6,2-.4.7-.9,1.3-1.6,1.9-.7.5-1.6,1-2.6,1.3l-3.6,1.1-.4-9.8ZM39.9,31.5c.5-.2,1-.4,1.4-.7.4-.3.7-.6.9-1,.2-.3.3-.7.3-1,0-.4,0-.7-.1-1.1-.1-.3-.2-.5-.3-.7s-.3-.3-.5-.4-.5-.2-.8-.2-.7.1-1.1.2l-.7.2.2,5,.7-.3Z"/>
        <path class="cls-10" d="M49.2,21.1l2.5-.8,4.2,8.7-2.6.8-.7-1.5-3.6,1-.6,2-2.7.8,3.5-11ZM51.7,26.4l-1.1-2.5-.9,3.1,2-.6Z"/>
        <polygon class="cls-10" points="58.3 24.4 54.7 19.4 57.4 18.6 59.4 21.7 61.1 17.5 64.1 16.5 60.8 23.9 60.9 27.4 58.4 28.2 58.3 24.4"/>
      </g>
      <polygon class="cls-11" points="19.9 46.1 21.6 45.6 21.6 47.4 20 47.9 19.9 46.1"/>
      <path class="cls-11" d="M25.6,46.3c-.4.1-.8.2-1.2.2s-.7-.1-1-.2c-.3-.1-.6-.4-.8-.6-.2-.3-.4-.6-.5-1s-.2-.9-.1-1.4c0-.5.2-.9.4-1.3s.5-.8.9-1.2c.4-.3.9-.6,1.4-.8.6-.2,1.1-.2,1.6-.1.5.1.9.4,1.2.8l-1.2,1.2c-.2-.2-.4-.3-.6-.4-.2-.1-.5-.1-.8,0-.2.1-.5.2-.6.4-.2.2-.3.4-.4.6-.1.2-.2.5-.2.7,0,.3,0,.5.1.8.1.4.3.6.6.8.3.1.6.2.9.1.3-.1.5-.2.6-.4.2-.2.3-.4.4-.6l1.4.6c-.2.4-.4.8-.8,1.1-.3.3-.8.5-1.3.7"/>
      <path class="cls-11" d="M31.3,44.5c-.4.1-.8.2-1.2.2s-.7-.1-1-.3-.6-.4-.8-.7c-.2-.3-.4-.6-.5-1s-.2-.9-.1-1.4c0-.5.2-.9.4-1.3s.5-.8.9-1.1.8-.6,1.3-.7c.4-.1.8-.2,1.2-.2s.7.1,1,.3c.3.2.6.4.8.7s.4.6.5,1,.2.9.1,1.4c0,.5-.2.9-.4,1.3-.2.4-.5.8-.9,1.1-.3.3-.8.6-1.3.7M31,43c.3-.1.5-.2.6-.4.2-.2.3-.4.4-.6.1-.2.1-.5.2-.7,0-.2,0-.5-.1-.7s-.1-.3-.2-.5c-.1-.1-.2-.3-.4-.3-.1-.1-.3-.1-.5-.1s-.4,0-.6.1c-.3.1-.5.2-.6.4-.2.2-.3.4-.4.6-.1.2-.1.5-.2.7,0,.2,0,.5.1.7s.1.3.2.5c.1.1.2.3.4.3.1.1.3.1.5.1s.4,0,.6-.1"/>
      <polygon class="cls-11" points="34.2 37.1 35.9 36.6 37.3 38.7 38.6 35.8 40.4 35.2 40.6 41.5 39 42 38.9 38.4 37.5 41.3 37.5 41.3 35.9 39.3 36.1 42.9 34.5 43.4 34.2 37.1"/>
      <polygon class="cls-11" points="41.2 39.6 42.9 39.1 42.9 40.8 41.3 41.3 41.2 39.6"/>
      <path class="cls-11" d="M45.3,33.7l1.6-.5,2.7,5.6-1.7.5-.5-1-2.2.7-.4,1.3-1.8.5,2.3-7.1ZM46.9,37.1l-.7-1.6-.6,2,1.3-.4Z"/>
      <path class="cls-11" d="M49.5,32.4l2.2-.7c.5-.2.9-.2,1.3-.2s.7.1.9.2.4.3.5.4c.1.2.2.4.3.6.2.5.1,1,0,1.4-.2.4-.5.8-1.1,1.2l1.5,1.7-1.8.5-1.3-1.4-.7.2.1,1.9-1.6.5-.3-6.3ZM52.1,34.7c.4-.1.6-.3.8-.5s.2-.4.1-.7c0-.2-.1-.3-.3-.3-.2-.1-.4-.1-.8,0l-.9.3.1,1.5,1-.3Z"/>
      <polygon class="cls-11" points="4.7 34 7.2 33.2 9.5 36.3 11.5 31.9 14.3 31 14.7 40.8 12.2 41.6 12 36 9.8 40.5 9.7 40.5 7.3 37.4 7.5 43 5.1 43.8 4.7 34"/>
      <path class="cls-11" d="M21.5,38.9c-.6.2-1.3.3-1.9.2-.6,0-1.1-.2-1.6-.4s-.9-.6-1.3-1-.6-.9-.8-1.5c-.2-.7-.3-1.4-.2-2.1.1-.7.3-1.4.6-2,.3-.6.8-1.2,1.3-1.7.6-.5,1.2-.9,2-1.1.6-.2,1.3-.3,1.9-.2.6,0,1.1.2,1.6.4.5.2.9.6,1.3,1s.6.9.8,1.5c.2.7.3,1.4.2,2.1-.1.7-.3,1.4-.6,2-.3.6-.8,1.2-1.3,1.7-.6.5-1.2.9-2,1.1M21,36.6c.4-.1.7-.3,1-.6s.5-.6.6-.9c.1-.3.2-.7.2-1.1s0-.7-.1-1.1c-.1-.3-.2-.5-.4-.8-.2-.2-.4-.4-.6-.5s-.5-.2-.7-.2c-.3,0-.6,0-.9.1-.4.1-.7.3-1,.6-.3.3-.5.6-.6.9-.1.4-.2.7-.2,1.1s0,.7.1,1.1c.1.3.2.5.4.8.2.2.4.4.6.5s.5.2.7.2c.3,0,.6,0,.9-.1"/>
      <polygon class="cls-11" points="26.4 27.3 28.8 26.6 32.7 30.9 32.5 25.4 35 24.7 35.3 34.5 33.1 35.2 29.1 30.7 29.3 36.3 26.8 37.1 26.4 27.3"/>
      <path class="cls-11" d="M36.5,24.2l2.9-.9c.9-.3,1.6-.4,2.3-.3.6,0,1.2.2,1.6.4.9.5,1.5,1.2,1.8,2.3.2.7.3,1.4.2,2-.1.7-.3,1.3-.6,2-.4.7-.9,1.3-1.6,1.9-.7.5-1.6,1-2.6,1.3l-3.6,1.1-.4-9.8ZM40.2,30.6c.5-.2,1-.4,1.4-.7.4-.3.7-.6.9-1,.2-.3.3-.7.3-1,0-.4,0-.7-.1-1.1-.1-.3-.2-.5-.3-.7s-.3-.3-.5-.4-.5-.2-.8-.2-.7.1-1.1.2l-.7.2.2,5,.7-.3Z"/>
      <path class="cls-11" d="M49.4,20.1l2.5-.8,4.2,8.7-2.6.8-.7-1.5-3.5,1.1-.6,2-2.7.8,3.4-11.1ZM52,25.4l-1.1-2.5-.9,3.1,2-.6Z"/>
      <polygon class="cls-11" points="58.5 23.5 55 18.5 57.7 17.7 59.6 20.8 61.3 16.5 64.3 15.6 61.1 23 61.2 26.5 58.7 27.3 58.5 23.5"/>
    </g>
    <g class="cls-19">
      <rect class="cls-7" x="3.5" y="17.1" width="15.1" height="6.3"/>
    </g>
    <g class="cls-8">
      <rect class="cls-22" x="7.6" y="22.4" width="6.9" height="3.7"/>
    </g>
    <g class="cls-9">
      <rect class="cls-29" x="11.3" y="26.1" width="5" height="2.3"/>
    </g>
    <g>
      <polygon class="cls-11" points="23.9 21.7 20.4 16.7 23.1 15.9 25 19 26.7 14.8 29.8 13.8 26.4 21.2 26.6 24.7 24 25.5 23.9 21.7"/>
      <path class="cls-11" d="M30.3,13.7l3.8-1.1c.6-.2,1.2-.3,1.6-.3.5,0,.8,0,1.2.2.3.1.6.3.8.5s.3.5.4.8c.2.6.1,1.1-.1,1.6-.2.5-.6.9-1.2,1.3.5,0,.8.1,1.2.4.3.2.6.6.7,1,.1.4.1.8.1,1.2-.1.4-.2.8-.5,1.1-.3.3-.6.7-1.1,1s-1.1.6-1.8.8l-4.7,1.4-.4-9.9ZM34.6,16.3c.4-.1.8-.3.9-.6.2-.2.2-.5.1-.8-.1-.2-.2-.3-.4-.4-.2-.1-.5,0-.9.1l-1.6.5.1,1.7,1.8-.5ZM34.9,20c.4-.1.8-.3,1-.6.2-.3.2-.5.2-.8-.1-.5-.6-.6-1.3-.4l-1.7.5v1.8l1.8-.5Z"/>
      <polygon class="cls-11" points="39.5 10.9 46.8 8.7 46.9 11 42.1 12.4 42.1 13.9 46.5 12.6 46.5 14.8 42.2 16.1 42.3 17.6 47.1 16.2 47.2 18.5 39.8 20.7 39.5 10.9"/>
      <path class="cls-11" d="M48.2,8.3l3.4-1c.8-.2,1.4-.3,2-.3s1,.1,1.4.3c.3.2.6.4.8.7.2.3.4.6.5,1,.2.8.2,1.5-.1,2.2s-.8,1.3-1.7,1.8l2.3,2.6-2.8.8-2-2.4-1.1.3.1,3-2.5.8-.3-9.8ZM52.3,11.8c.6-.2,1-.4,1.3-.8.3-.3.3-.7.2-1.1-.1-.2-.2-.4-.4-.5-.3-.1-.7-.1-1.2,0l-1.4.4.1,2.4,1.4-.4Z"/>
      <g class="cls-5">
        <path class="cls-11" d="M33.3,9.2l-14.8,5-14.8,5h0c-.3.1-.5.2-.6.3q-.1.1-.1.2v.2c0,.1.1.1.1.2.1.1.1.2.3.3l.9.7,3.6,2.7c.6.4,1.2.9,1.8,1.4l1.8,1.4c.6.5,1.2.9,1.8,1.4s1.2.9,1.8,1.4c.1.1.1.2,0,.3-.1.1-.2.1-.3,0-.6-.4-1.3-.8-1.9-1.2-.6-.4-1.3-.8-1.9-1.2l-2-1.3c-.6-.4-1.3-.8-1.9-1.2l-3.8-2.5-.4-.3-.2-.2-.1-.1h-.1l-.1-.1c-.2-.1-.4-.3-.6-.5s-.3-.5-.4-.8-.1-.6,0-.9.3-.6.5-.8c.2-.2.4-.4.7-.5.2-.1.5-.2.7-.2h0l15-4.5,15-4.5q.1,0,.1.1c0,.1-.1.2-.1.2"/>
      </g>
      <g class="cls-5">
        <path class="cls-11" d="M36.1,44.6c.3.2.6.4.9.5.3.2.6.4.9.5.3.2.6.4.9.6l.9.6.9.6c.3.2.6.4.9.6l.9.6c.3.2.6.4.9.6h.9l.3-.7c.1-.2.2-.5.3-.7s.2-.5.3-.7.2-.5.3-.7.2-.5.4-.7c.1-.2.2-.5.4-.7.1-.2.3-.5.4-.7.1-.2.3-.5.4-.7h0c-.1.3-.1.5-.2.8-.1.3-.2.5-.2.8-.1.3-.2.5-.3.8s-.2.5-.3.8-.2.5-.3.8-.2.5-.3.8-.2.5-.3.8l-.3.7h0l-.1.1s0,.1-.1.1l-.1.1-.1.1s-.1,0-.1.1c0,0-.1,0-.1.1,0,0-.1,0-.1.1h-.8l-.1-.1h0c-.3-.2-.6-.4-.8-.6l-1.4-1.4c-.3-.2-.6-.4-.8-.6l-.8-.6-.8-.6c-.3-.2-.6-.4-.8-.6-.3-.2-.6-.4-.8-.6-.4-.4-.7-.6-.9-.9q-.1.1,0,0c-.1,0,0,0,0,0"/>
      </g>
    </g>
  </g>
  <path class="cls-10" d="M17.3,28.6c-.6.2-1.2.3-1.8.2-.6,0-1.1-.2-1.6-.4-.5-.2-.9-.6-1.3-1-.4-.4-.6-.9-.8-1.5-.2-.7-.3-1.4-.2-2.1s.3-1.4.6-2.1.8-1.3,1.4-1.8c.6-.5,1.3-.9,2.2-1.2.9-.3,1.8-.3,2.5-.1.7.2,1.4.6,1.9,1.3l-1.8,1.8c-.3-.3-.6-.5-1-.6s-.8-.1-1.2,0c-.4.1-.7.3-1,.6-.3.3-.5.6-.7.9s-.3.7-.3,1.1,0,.8.1,1.2c.2.6.5,1,.9,1.2s.9.3,1.5.1c.4-.1.7-.3,1-.6.3-.3.5-.6.7-1l2.2,1c-.3.6-.7,1.2-1.2,1.7-.5.6-1.2,1-2.1,1.3"/>
  <path class="cls-11" d="M17.6,27.6c-.6.2-1.2.3-1.8.2-.6,0-1.1-.2-1.6-.4-.5-.2-.9-.6-1.3-1-.4-.4-.6-.9-.8-1.5-.2-.7-.3-1.4-.2-2.1s.3-1.4.6-2.1.8-1.3,1.4-1.8c.6-.5,1.3-.9,2.2-1.2.9-.3,1.8-.3,2.5-.1.7.2,1.4.6,1.9,1.3l-1.8,1.8c-.3-.3-.6-.5-1-.6s-.8-.1-1.2,0c-.4.1-.7.3-1,.6-.3.3-.5.6-.7.9s-.3.7-.3,1.1,0,.8.1,1.2c.2.6.5,1,.9,1.2s.9.3,1.5.1c.4-.1.7-.3,1-.6.3-.3.5-.6.7-1l2.2,1c-.3.6-.7,1.2-1.2,1.7-.6.7-1.3,1.1-2.1,1.3"/>
</svg>