<svg id="Capa_1" data-name="Capa 1" xmlns="http://www.w3.org/2000/svg" viewBox="0 0 32 32"><defs><style>.cls-1{fill:#fff;}.cls-2{fill:#f7b5cd;}</style></defs><path class="cls-1" d="M12.64,0H32a0,0,0,0,1,0,0V19.36A12.64,12.64,0,0,1,19.36,32H0a0,0,0,0,1,0,0V12.64A12.64,12.64,0,0,1,12.64,0Z"/><path d="M5.49,30.4v-4h1A1.2,1.2,0,0,0,7.37,26a1.23,1.23,0,0,0,.32-.89V8H11.9v18.2a4.37,4.37,0,0,1-1.06,3.12,3.92,3.92,0,0,1-3,1.1ZM7.66,5.8V1.6h4.27V5.8Z"/><path class="cls-2" d="M18.6,24.15a4.74,4.74,0,0,1-4-1.8,8.15,8.15,0,0,1-1.4-5.09V14.71a8.31,8.31,0,0,1,1.4-5.14,4.73,4.73,0,0,1,4-1.82,3.9,3.9,0,0,1,2.32.76,5.33,5.33,0,0,1,1.7,2.16L22.3,14.2A3.06,3.06,0,0,0,22,12.82a1.93,1.93,0,0,0-.8-.87,2.59,2.59,0,0,0-1.29-.3,2.22,2.22,0,0,0-1.83.81,3.49,3.49,0,0,0-.65,2.27v2.53a3.33,3.33,0,0,0,.65,2.21,2.25,2.25,0,0,0,1.83.78A2.59,2.59,0,0,0,21.22,20a1.86,1.86,0,0,0,.8-.84,2.91,2.91,0,0,0,.28-1.34l.21,3.64a3.94,3.94,0,0,1-3.91,2.73Zm3.7-.23V1.6h4.21V23.92Z"/></svg>