<?xml version="1.0" encoding="UTF-8"?>
<svg id="Capa_2" data-name="Capa 2" xmlns="http://www.w3.org/2000/svg" viewBox="0 0 128 128">
  <defs>
    <style>
      .cls-1 {
        fill: #f7b5cd;
      }

      .cls-2 {
        fill: #fff;
      }
    </style>
  </defs>
  <g id="Capa_1-2" data-name="Capa 1">
    <path class="cls-2" d="M47.64,0h80.36v80.36c0,26.29-21.34,47.64-47.64,47.64H0V47.64C0,21.34,21.34,0,47.64,0Z"/>
    <g>
      <path d="M25.46,118.85v-15.44h3.74c1.48,0,2.62-.41,3.42-1.23s1.2-1.95,1.2-3.39V33.47h16.02v69.3c0,5.11-1.35,9.06-4.04,11.87s-6.47,4.21-11.34,4.21h-9.01ZM33.7,25.17V9.15h16.26v16.02h-16.26Z"/>
      <path class="cls-1" d="M72.43,95.05c-6.47,0-11.49-2.29-15.06-6.87-3.57-4.58-5.35-11.04-5.35-19.39v-9.71c0-8.42,1.78-14.94,5.35-19.56,3.57-4.62,8.59-6.93,15.06-6.93,3.24,0,6.19.96,8.86,2.89s4.82,4.67,6.46,8.22l-1.23,13.45c0-2.07-.35-3.82-1.05-5.26-.7-1.44-1.73-2.54-3.07-3.3s-2.97-1.14-4.88-1.14c-3,0-5.33,1.02-6.99,3.07-1.66,2.05-2.49,4.92-2.49,8.63v9.65c0,3.63.83,6.43,2.49,8.42s3.99,2.98,6.99,2.98c1.91,0,3.54-.37,4.88-1.11,1.35-.74,2.37-1.81,3.07-3.22s1.05-3.1,1.05-5.09l.82,13.86c-1.21,3.31-3.11,5.88-5.7,7.69s-5.66,2.72-9.21,2.72ZM86.52,94.17V9.15h16.02v85.03h-16.02Z"/>
    </g>
  </g>
</svg>