<?xml version="1.0" encoding="UTF-8"?>
<svg id="Capa_1" xmlns="http://www.w3.org/2000/svg" version="1.1" viewBox="0 0 16 16">
  <defs>
    <style>
      .st0 {
        fill: #1d1d1b;
      }

      .st1 {
        fill: #fff;
      }
    </style>
  </defs>
  <rect class="st1" width="16" height="16" rx="3.25" ry="3.25"/>
  <g>
    <path class="st0" d="M6.01,11.41c0,1.04-.25,1.86-.76,2.48-.51.62-1.23.93-2.19.93-.31,0-.66-.07-1.03-.21v-1.7c.3.17.57.25.8.25.68,0,1.02-.53,1.02-1.6v-7.04h2.16v6.88ZM4.94,3.43c-.36,0-.66-.11-.9-.32s-.35-.48-.35-.8.12-.59.35-.79.53-.31.9-.31.67.1.9.31.35.47.35.79-.12.6-.35.81-.53.31-.9.31Z"/>
    <path class="st0" d="M13.97,11.54h-2.16v-.96h-.03c-.49.76-1.21,1.13-2.17,1.13-.88,0-1.58-.31-2.11-.93-.53-.62-.8-1.48-.8-2.59s.29-2.08.88-2.78,1.36-1.05,2.31-1.05c.9,0,1.53.32,1.89.97h.03V1.17h2.16v10.36ZM11.85,8.13v-.53c0-.46-.13-.83-.4-1.13s-.61-.45-1.03-.45c-.48,0-.85.19-1.12.56-.27.38-.4.89-.4,1.55,0,.62.13,1.09.39,1.42.26.33.62.5,1.08.5s.79-.17,1.07-.53c.28-.35.41-.82.41-1.39Z"/>
  </g>
</svg>