<?xml version="1.0" encoding="UTF-8"?>
<svg id="Capa_1" data-name="Capa 1" xmlns="http://www.w3.org/2000/svg" viewBox="0 0 272.14 75.87">
  <defs>
    <style>
      .cls-1 {
        fill: #f7b5cd;
      }

      .cls-2 {
        fill: #fff;
      }
    </style>
  </defs>
  <g>
    <path class="cls-2" d="M0,65.95v-9.28h2.25c.89,0,1.58-.25,2.06-.74.48-.49.72-1.17.72-2.04V14.62h9.63v41.66c0,3.07-.81,5.45-2.43,7.14s-3.89,2.53-6.82,2.53H0ZM4.96,9.63V0h9.77v9.63H4.96Z"/>
    <path class="cls-2" d="M28.46,14.62v22.18c0,1.76.5,3.12,1.49,4.1,1,.97,2.4,1.46,4.2,1.46s3.19-.5,4.17-1.49c.97-1,1.46-2.42,1.46-4.27l.49,7.98c-.61,1.8-1.68,3.43-3.22,4.89-1.54,1.45-3.52,2.18-5.96,2.18-3.91,0-6.94-1.27-9.07-3.8-2.13-2.53-3.2-6.09-3.2-10.69V14.62h9.63ZM39.78,51.12V14.62h9.6v36.49h-9.6Z"/>
    <path class="cls-2" d="M67.42,51.64c-3.28,0-6.4-.44-9.37-1.32-2.97-.88-5.49-2.1-7.58-3.67l5.94-7.42c1.76,1.12,3.6,1.99,5.52,2.6s3.75.91,5.48.91c2.25,0,4-.25,5.24-.76s1.86-1.2,1.86-2.09c0-1.08-.43-1.82-1.28-2.21s-1.97-.66-3.36-.79-2.85-.3-4.39-.51c-1.57-.21-3.12-.46-4.66-.76s-2.94-.77-4.2-1.44-2.27-1.68-3.02-3.02c-.75-1.35-1.12-3.18-1.12-5.5,0-3.68,1.3-6.53,3.9-8.54s6.28-3.02,11.04-3.02c2.79,0,5.54.41,8.24,1.23s5.13,1.98,7.26,3.48l-5.73,7c-1.59-.89-3.26-1.58-4.99-2.07s-3.4-.74-4.99-.74c-1.95,0-3.46.22-4.54.65s-1.62,1.06-1.62,1.88c0,.7.38,1.23,1.12,1.58s1.73.6,2.95.76,2.53.31,3.94.47c1.62.19,3.25.42,4.89.69s3.15.76,4.52,1.46,2.48,1.77,3.32,3.2,1.27,3.4,1.27,5.91c0,3.82-1.37,6.79-4.1,8.89s-6.58,3.16-11.55,3.16Z"/>
    <path class="cls-2" d="M82.59,22.85v-8.23h17.86v8.23h-17.86ZM95.6,51.29c-3.26,0-5.61-.83-7.07-2.5s-2.18-4.05-2.18-7.17V4.01h9.63v35.23c0,.87.18,1.55.53,2.04s.87.74,1.55.74h2.39v9.28h-4.85Z"/>
    <path class="cls-1" d="M114.7,51.64c-3.89,0-6.91-1.38-9.05-4.13s-3.22-6.64-3.22-11.65v-5.84c0-5.06,1.07-8.98,3.22-11.76s5.16-4.17,9.05-4.17c1.95,0,3.72.58,5.33,1.74s2.9,2.81,3.88,4.94l-.74,8.09c0-1.24-.21-2.3-.63-3.16s-1.04-1.53-1.85-1.99-1.79-.69-2.94-.69c-1.8,0-3.21.62-4.2,1.85s-1.49,2.96-1.49,5.19v5.8c0,2.18.5,3.87,1.49,5.06s2.4,1.79,4.2,1.79c1.15,0,2.13-.22,2.94-.67s1.42-1.09,1.85-1.93.63-1.86.63-3.06l.49,8.33c-.73,1.99-1.87,3.53-3.43,4.62s-3.4,1.63-5.54,1.63ZM123.17,51.12V0h9.63v51.12h-9.63Z"/>
    <path class="cls-1" d="M146.81,51.64c-3.89,0-6.81-.93-8.75-2.78s-2.92-4.69-2.92-8.51,1.08-6.35,3.25-8.14,5.42-2.69,9.76-2.69h9.14l.49,7.35h-9.6c-1.45,0-2.54.29-3.27.86s-1.09,1.45-1.09,2.62.46,2.08,1.39,2.65,2.3.86,4.13.86c2.55,0,4.46-.29,5.73-.88s1.9-1.5,1.9-2.74l.74,5.31c-.14,1.38-.76,2.53-1.86,3.43s-2.46,1.57-4.06,2-3.26.65-4.97.65ZM156.97,51.12v-23.13c0-1.69-.56-2.99-1.69-3.9s-2.72-1.37-4.78-1.37c-1.36,0-2.71.22-4.04.65s-2.52,1.06-3.55,1.88l-5.98-5.87c1.45-1.66,3.38-2.96,5.77-3.88s5.04-1.39,7.95-1.39c4.8,0,8.52,1.18,11.14,3.55s3.94,5.71,3.94,10.02v23.45h-8.75Z"/>
    <path class="cls-1" d="M169.82,51.12V14.62h10.34v36.49h-10.34ZM190.35,24.79c-.45-.47-1.01-.82-1.71-1.05s-1.48-.35-2.37-.35c-1.95,0-3.45.63-4.52,1.88s-1.6,2.99-1.6,5.22l-.74-9.49c1.01-2.16,2.31-3.84,3.92-5.06s3.37-1.83,5.29-1.83c1.52,0,2.9.24,4.13.72s2.3,1.19,3.22,2.13l-5.62,7.84Z"/>
    <path class="cls-1" d="M194.62,9.63V0h9.63v9.63h-9.63ZM194.62,51.12V14.62h9.63v36.49h-9.63Z"/>
    <path class="cls-1" d="M217.73,51.64c-3.89,0-6.81-.93-8.75-2.78s-2.92-4.69-2.92-8.51,1.08-6.35,3.25-8.14,5.42-2.69,9.76-2.69h9.14l.49,7.35h-9.6c-1.45,0-2.54.29-3.27.86s-1.09,1.45-1.09,2.62.46,2.08,1.39,2.65,2.3.86,4.13.86c2.55,0,4.46-.29,5.73-.88s1.9-1.5,1.9-2.74l.74,5.31c-.14,1.38-.76,2.53-1.86,3.43s-2.46,1.57-4.06,2-3.26.65-4.97.65ZM227.89,51.12v-23.13c0-1.69-.56-2.99-1.69-3.9s-2.72-1.37-4.78-1.37c-1.36,0-2.71.22-4.04.65s-2.52,1.06-3.55,1.88l-5.98-5.87c1.45-1.66,3.38-2.96,5.77-3.88s5.04-1.39,7.95-1.39c4.8,0,8.52,1.18,11.14,3.55s3.94,5.71,3.94,10.02v23.45h-8.75Z"/>
    <path class="cls-1" d="M240.74,51.12V14.62h9.63v36.49h-9.63ZM261.83,51.12v-22.11c0-1.8-.51-3.19-1.53-4.17s-2.47-1.46-4.34-1.46-3.16.5-4.13,1.49-1.46,2.4-1.46,4.2l-.74-8.09c1.05-2.2,2.34-3.9,3.85-5.1s3.47-1.79,5.89-1.79c3.84,0,6.82,1.29,8.93,3.88s3.16,6.25,3.16,10.99v22.15h-9.63Z"/>
  </g>
  <g>
    <path class="cls-2" d="M61.9,70.93l-3.75-12.16h3.08l2.16,7.51,2.57-7.51h1.9l2.57,7.51,2.16-7.51h3.08l-3.75,12.16h-2.39l-2.61-7.93-2.61,7.93h-2.39Z"/>
    <path class="cls-2" d="M87.55,71.1c-1.77,0-3.13-.47-4.11-1.42s-1.46-2.29-1.46-4.03v-1.37c0-1.81.47-3.21,1.4-4.21s2.25-1.49,3.96-1.49c1.61,0,2.85.59,3.73,1.78s1.32,2.85,1.32,5v.8h-8.32v-2.17h5.39l-.04-.28c-.09-.7-.3-1.24-.66-1.62s-.83-.58-1.43-.58c-.77,0-1.37.23-1.8.69s-.64,1.11-.64,1.96v1.55c0,.83.23,1.47.7,1.92s1.12.68,1.95.68c.43,0,.86-.08,1.28-.23s.8-.37,1.15-.65l2.1,1.86c-.63.58-1.34,1.03-2.13,1.34s-1.59.47-2.39.47Z"/>
    <path class="cls-2" d="M100,70.93v-17.04h3.21v17.04h-3.21ZM106.04,71.1c-.71,0-1.32-.18-1.84-.54s-.9-.88-1.15-1.54l.16-2.78c0,.4.07.74.21,1.02s.35.5.62.64.6.22.98.22c.6,0,1.07-.2,1.4-.6s.5-.96.5-1.69v-1.93c0-.74-.17-1.32-.5-1.73s-.8-.62-1.4-.62c-.38,0-.71.08-.98.23s-.47.37-.62.66-.21.64-.21,1.05l-.25-2.7c.33-.71.76-1.26,1.29-1.65s1.13-.58,1.78-.58c1.3,0,2.31.46,3.02,1.39s1.07,2.23,1.07,3.92v1.95c0,1.67-.36,2.97-1.07,3.88s-1.72,1.38-3.02,1.38Z"/>
    <path class="cls-2" d="M132.84,71.1c-1.3,0-2.3-.46-3.02-1.38s-1.07-2.21-1.07-3.88v-1.95c0-1.69.36-2.99,1.07-3.92s1.72-1.39,3.02-1.39c.65,0,1.24.19,1.78.58s.97.94,1.29,1.65l-.25,2.7c0-.41-.07-.77-.21-1.05s-.35-.51-.62-.66-.6-.23-.98-.23c-.6,0-1.07.21-1.4.62s-.5.99-.5,1.73v1.93c0,.73.17,1.29.5,1.69s.8.6,1.4.6c.38,0,.71-.07.98-.22s.47-.36.62-.64.21-.62.21-1.02l.16,2.78c-.24.66-.62,1.18-1.14,1.54s-1.13.54-1.85.54ZM135.67,70.93v-17.04h3.21v17.04h-3.21Z"/>
    <path class="cls-2" d="M152.06,71.1c-1.77,0-3.13-.47-4.11-1.42s-1.46-2.29-1.46-4.03v-1.37c0-1.81.47-3.21,1.4-4.21s2.25-1.49,3.96-1.49c1.61,0,2.85.59,3.73,1.78s1.32,2.85,1.32,5v.8h-8.32v-2.17h5.39l-.04-.28c-.09-.7-.3-1.24-.66-1.62s-.83-.58-1.43-.58c-.77,0-1.37.23-1.8.69s-.64,1.11-.64,1.96v1.55c0,.83.23,1.47.7,1.92s1.12.68,1.95.68c.43,0,.86-.08,1.28-.23s.8-.37,1.15-.65l2.1,1.86c-.63.58-1.34,1.03-2.13,1.34s-1.59.47-2.39.47Z"/>
    <path class="cls-2" d="M168.46,66.39l2.51-7.63h3.2l-4.57,12.16h-2.27l-4.57-12.16h3.2l2.51,7.63Z"/>
    <path class="cls-2" d="M185.82,71.1c-1.77,0-3.13-.47-4.11-1.42s-1.46-2.29-1.46-4.03v-1.37c0-1.81.47-3.21,1.4-4.21s2.25-1.49,3.96-1.49c1.61,0,2.85.59,3.73,1.78s1.32,2.85,1.32,5v.8h-8.32v-2.17h5.39l-.04-.28c-.09-.7-.3-1.24-.66-1.62s-.83-.58-1.43-.58c-.77,0-1.37.23-1.8.69s-.64,1.11-.64,1.96v1.55c0,.83.23,1.47.7,1.92s1.12.68,1.95.68c.43,0,.86-.08,1.28-.23s.8-.37,1.15-.65l2.1,1.86c-.63.58-1.34,1.03-2.13,1.34s-1.59.47-2.39.47Z"/>
    <path class="cls-2" d="M201.48,53.89v13.02c0,.29.08.52.25.68s.41.25.72.25h.54v3.09h-1.64c-.98,0-1.73-.28-2.27-.84s-.81-1.36-.81-2.38v-13.82h3.21Z"/>
    <path class="cls-2" d="M214.92,71.1c-1.67,0-2.96-.46-3.88-1.39s-1.37-2.23-1.37-3.91v-1.98c0-1.66.46-2.95,1.37-3.87s2.21-1.37,3.88-1.37,2.96.46,3.88,1.37,1.37,2.2,1.37,3.87v2.02c0,1.67-.46,2.97-1.37,3.88s-2.21,1.38-3.88,1.38ZM214.91,68.01c.65,0,1.15-.19,1.51-.57s.54-.91.54-1.6v-2.02c0-.68-.18-1.21-.54-1.58s-.86-.56-1.51-.56-1.14.19-1.49.56-.53.9-.53,1.58v2.02c0,.69.18,1.22.53,1.6s.85.57,1.49.57Z"/>
    <path class="cls-2" d="M227.9,75.87v-17.11h3.21v17.11h-3.21ZM233.93,71.1c-.71,0-1.32-.18-1.84-.54s-.9-.88-1.15-1.54l.16-2.78c0,.4.07.74.21,1.02s.35.5.62.64.6.22.98.22c.6,0,1.07-.2,1.4-.6s.5-.96.5-1.69v-1.93c0-.74-.17-1.32-.5-1.73s-.8-.62-1.4-.62c-.38,0-.71.08-.98.23s-.47.37-.62.66-.21.64-.21,1.05l-.25-2.7c.33-.71.76-1.26,1.29-1.65s1.13-.58,1.78-.58c1.3,0,2.31.46,3.02,1.39s1.07,2.23,1.07,3.92v1.95c0,1.67-.36,2.97-1.07,3.88s-1.72,1.38-3.02,1.38Z"/>
    <path class="cls-2" d="M250.97,71.1c-1.77,0-3.13-.47-4.11-1.42s-1.46-2.29-1.46-4.03v-1.37c0-1.81.47-3.21,1.4-4.21s2.25-1.49,3.96-1.49c1.61,0,2.85.59,3.73,1.78s1.32,2.85,1.32,5v.8h-8.32v-2.17h5.39l-.04-.28c-.09-.7-.3-1.24-.66-1.62s-.83-.58-1.43-.58c-.77,0-1.37.23-1.8.69s-.64,1.11-.64,1.96v1.55c0,.83.23,1.47.7,1.92s1.12.68,1.95.68c.43,0,.86-.08,1.28-.23s.8-.37,1.15-.65l2.1,1.86c-.63.58-1.34,1.03-2.13,1.34s-1.59.47-2.39.47Z"/>
    <path class="cls-2" d="M263.42,70.93v-12.16h3.45v12.16h-3.45ZM270.26,62.15c-.15-.16-.34-.27-.57-.35s-.49-.12-.79-.12c-.65,0-1.15.21-1.51.63s-.53,1-.53,1.74l-.25-3.16c.34-.72.77-1.28,1.31-1.69s1.12-.61,1.76-.61c.51,0,.97.08,1.38.24s.77.4,1.07.71l-1.88,2.61Z"/>
  </g>
</svg>